<svg viewbox="0 0 80 80" fill="none" xmlns="http://www.w3.org/2000/svg">
<path d="M16 0H64C72.8 0 80 7.2 80 16V64C80 72.8 72.8 80 64 80H16C7.2 80 0 72.8 0 64V16C0 7.2 7.2 0 16 0Z" fill="#018992"/>
<path d="M26.5 23H53C53.8 23 54.5 23.3 55 23.7C55.6 24.2 56 24.9 56 25.7V51.4C56 52.2 55.6 52.9 55 53.4C54.5 53.9 53.7 54.1 53 54.1H40.3H39.5L39.2 53.4C39.2 53.3 39.1 53.2 39.1 53.1C39.1 53 39 52.9 38.9 52.8L38.8 52.7C38.5 52.1 38 51.7 37.5 51.3C37 51 36.3 50.8 35.7 50.8C34.9 50.8 34.2 51.1 33.6 51.5C33 51.9 32.5 52.6 32.3 53.3L32 54.1H31.2H26.5C25.7 54.1 25 53.8 24.5 53.4C23.9 52.9 23.5 52.2 23.5 51.4V25.7C23.5 24.9 23.9 24.2 24.5 23.7C25 23.3 25.7 23 26.5 23ZM53 25.3H26.5C26.3 25.3 26.1 25.4 25.9 25.5C25.8 25.6 25.8 25.6 25.8 25.7V51.4C25.8 51.5 25.9 51.6 25.9 51.6C26 51.7 26.2 51.8 26.5 51.8H30.4C30.8 50.9 31.5 50.2 32.2 49.6C33.2 48.9 34.4 48.5 35.7 48.5C36.8 48.5 37.8 48.8 38.7 49.3C39.6 49.8 40.3 50.6 40.8 51.5C40.9 51.6 40.9 51.7 41 51.8H53C53.2 51.8 53.4 51.7 53.6 51.6C53.7 51.5 53.7 51.5 53.7 51.4V25.7C53.7 25.6 53.6 25.5 53.6 25.5C53.4 25.4 53.2 25.3 53 25.3Z" fill="white"/>
<path d="M56 34.1H65.2C66.2 34.1 70.2 39.9 72.3 42.9C72.8 43.6 73.2 44.2 73.3 44.3L73.5 45V51.7C73.5 52.3 73.3 52.9 72.9 53.4C72.5 53.9 71.9 54.2 71.2 54.2H68.1H67.3L67 53.4C66.8 52.7 66.3 52 65.7 51.6C65.1 51.2 64.4 50.9 63.6 50.9C62.8 50.9 62.1 51.2 61.5 51.6C60.9 52 60.4 52.7 60.2 53.4L59.9 54.2H59.1H56C55.3 54.2 54.8 53.9 54.3 53.4C53.9 53 53.7 52.4 53.7 51.7V36.6C53.7 36 53.9 35.4 54.3 34.9C54.8 34.4 55.4 34.1 56 34.1ZM65.3 36.4H56.2C56.2 36.4 56.2 36.5 56.2 36.6V51.7C56.2 51.8 56.2 51.8 56.2 51.9H58.4C58.8 51 59.5 50.3 60.2 49.7C61.2 49 62.4 48.6 63.7 48.6C65 48.6 66.2 49 67.2 49.7C68 50.3 68.6 51 69 51.9H71.2C71.2 51.9 71.2 51.8 71.2 51.7V45.4C71 45.1 70.7 44.7 70.4 44.2C68.6 41.6 65.4 36.4 65.3 36.4Z" fill="white"/>
<path d="M69.3 38.5C70.5 40.2 71.6 41.8 72.3 42.8C72.8 43.5 73.2 44.1 73.3 44.2L73.5 44.9V46.1V47.3H72.3H64.2C63 47.3 62 46.8 61.2 46.1C60.4 45.3 60 44.3 60 43.1V42.3C60 41.1 60.5 40.1 61.2 39.3C62 38.5 63 38.1 64.2 38.1H68.3H68.9L69.3 38.5ZM70.4 44.2C69.6 43.1 68.6 41.6 67.8 40.4H64.3C63.8 40.4 63.3 40.6 62.9 41C62.6 41.3 62.3 41.8 62.3 42.4V43.2C62.3 43.7 62.5 44.2 62.9 44.6C63.2 44.9 63.7 45.2 64.3 45.2H71C70.8 44.8 70.6 44.5 70.4 44.2Z" fill="white"/>
<path d="M63.7 48.5C65.3 48.5 66.8 49.2 67.9 50.2C69 51.3 69.6 52.8 69.6 54.4C69.6 56 68.9 57.5 67.9 58.6C66.8 59.7 65.3 60.3 63.7 60.3C62.1 60.3 60.6 59.6 59.5 58.6C58.4 57.5 57.8 56 57.8 54.4C57.8 52.8 58.5 51.3 59.5 50.2C60.5 49.2 62 48.5 63.7 48.5ZM66.2 51.9C65.5 51.2 64.6 50.8 63.6 50.8C62.6 50.8 61.7 51.2 61 51.9C60.3 52.6 60 53.4 60 54.4C60 55.4 60.4 56.3 61.1 57C61.8 57.7 62.7 58.1 63.7 58.1C64.7 58.1 65.6 57.7 66.3 57C67 56.3 67.4 55.4 67.4 54.4C67.3 53.4 66.9 52.5 66.2 51.9Z" fill="white"/>
<path d="M21.2 36.6C21.7 36.6 22.2 36.1 22.2 35.4C22.2 34.8 21.8 34.2 21.2 34.2H10.5C10 34.2 9.5 34.7 9.5 35.4C9.5 36 9.9 36.6 10.5 36.6H21.2Z" fill="white"/>
<path d="M21.3 42.6C21.8 42.6 22.2 42.1 22.2 41.4C22.2 40.8 21.8 40.2 21.3 40.2H5.9C5.4 40.2 5 40.7 5 41.4C5 42 5.4 42.6 5.9 42.6H21.3Z" fill="white"/>
<path d="M21.2 48.5C21.8 48.5 22.2 48 22.2 47.3C22.2 46.7 21.7 46.1 21.2 46.1H10C9.4 46.1 9 46.6 9 47.3C9 47.9 9.5 48.5 10 48.5H21.2Z" fill="white"/>
<path d="M35.7 48.5C37.3 48.5 38.8 49.2 39.9 50.2C41 51.3 41.6 52.8 41.6 54.4C41.6 56 40.9 57.5 39.9 58.6C38.8 59.7 37.3 60.3 35.7 60.3C34.1 60.3 32.6 59.6 31.5 58.6C30.4 57.5 29.8 56 29.8 54.4C29.8 52.8 30.5 51.3 31.5 50.2C32.6 49.2 34.1 48.5 35.7 48.5ZM38.3 51.9C37.6 51.2 36.7 50.8 35.7 50.8C34.7 50.8 33.8 51.2 33.1 51.9C32.4 52.6 32 53.5 32 54.5C32 55.5 32.4 56.4 33.1 57.1C33.8 57.8 34.7 58.2 35.7 58.2C36.7 58.2 37.6 57.8 38.3 57.1C39 56.4 39.4 55.5 39.4 54.5C39.3 53.4 38.9 52.5 38.3 51.9Z" fill="white"/>
<path fill-rule="evenodd" clip-rule="evenodd" d="M63.7 55.6C64.3 55.6 64.8 55.1 64.8 54.5C64.8 53.9 64.3 53.4 63.7 53.4C63.1 53.4 62.6 53.9 62.6 54.5C62.5 55.1 63 55.6 63.7 55.6Z" fill="white"/>
<path fill-rule="evenodd" clip-rule="evenodd" d="M35.7 55.6C36.3 55.6 36.8 55.1 36.8 54.5C36.8 53.9 36.3 53.4 35.7 53.4C35.1 53.4 34.6 53.9 34.6 54.5C34.6 55.1 35.1 55.6 35.7 55.6Z" fill="white"/>
<path d="M38.1 30.5C37.7 30.7 37.2 30.8 36.7 30.7C36.2 30.6 35.7 30.4 35.2 30.5" stroke="white" stroke-width="0.25" stroke-miterlimit="10" stroke-linecap="round" stroke-linejoin="round"/>
<path d="M35.8 30.6C35.6 30.7 35.4 30.8 35.2 30.9" stroke="white" stroke-width="0.25" stroke-miterlimit="10" stroke-linecap="round" stroke-linejoin="round"/>
<path d="M41.4 40.5C41.9 40.4 42.4 40.4 42.8 40.3C46.5 39.8 49.1 35.9 48.2 32.3C47.4 29.3 44.9 27.5 41.8 27.7C41.2 27.7 40.6 27.7 40 27.6C38.8 27.4 37.5 28 36.8 29C36.2 30 36.6 31.1 37.6 31.6C38.8 32.1 40.4 31.7 41.3 30.7C41.4 30.6 41.5 30.5 41.6 30.5C42.8 30.3 43.9 30.6 44.6 31.5C44.9 31.9 45.2 32 45.7 32C46.9 32 47.5 32.8 47.1 33.9C46.5 35.5 45.6 36.7 44.2 37.7C43.3 38.4 42.2 38.8 41.1 39C41.4 39.5 41.4 40 41.4 40.5ZM40 41.9C40.2 41.9 40.4 41.9 40.6 41.9C40.9 41.9 41 41.8 41 41.5C41 40.7 41 39.9 41.1 39.1C41.1 38.9 41.2 38.8 41.4 38.7C44.3 38.1 46.2 36.3 47.1 33.6C47.2 33.4 47.1 33.2 47.1 33C46.9 32.5 46.6 32.3 45.8 32.3C41.5 32.3 37.2 32.3 32.9 32.3C32.8 32.3 32.6 32.3 32.5 32.3C31.7 32.4 31.3 33 31.5 33.7C32.4 36.2 34.1 37.8 36.6 38.6C36.9 38.7 37.3 38.8 37.7 38.9C37.7 39.6 37.7 40.4 37.7 41.1C37.7 41.7 38.1 42 38.7 42C38.7 40.6 38.7 39.3 38.7 37.9C37.2 37.9 36 37.5 34.8 36.6C33.7 35.8 32.9 34.7 32.5 33.4C37.1 33.4 41.6 33.4 46.1 33.4C45 36.2 43 37.7 40 37.9C40 39.1 40 40.5 40 41.9ZM45.5 47.5C45.5 47.5 45.6 47.5 45.6 47.4C45.6 47.3 45.6 47.1 45.6 47C45.5 46.4 45.4 45.8 45.3 45.3C44.8 43.7 43.8 42.6 42.1 42.3C41.3 42.2 40.4 42.2 39.6 42.2C39.1 42.2 38.6 42.2 38.2 42.1C37.8 42 37.6 41.7 37.5 41.2C37.5 40.6 37.5 39.9 37.4 39.3C37.4 39.2 37.3 39 37.3 39C37.1 39 36.8 38.9 36.6 39C36.3 39.2 36 39.4 35.7 39.7C34.7 40.7 34.6 42 35.4 43.1C35.8 43.7 36.4 44.1 37.1 44.4C38.3 44.9 39.5 44.9 40.8 44.6C42.2 44.3 43.3 44.7 44.2 45.7C44.5 46.1 44.8 46.4 45.1 46.8C45.1 47.1 45.3 47.3 45.5 47.5ZM37.2 44.9C36.9 44.7 36.6 44.6 36.2 44.4C36 44.8 35.8 45.1 35.7 45.4C35.5 46.2 36 46.8 36.7 46.8C38.4 46.8 40.2 46.8 41.9 46.8C42.1 46.8 42.4 46.7 42.6 46.6C43 46.3 43.1 45.6 42.8 45.3C42.4 45 42 44.9 41.5 45C41.6 45.3 41.7 45.5 41.8 45.7C40 45.7 38.3 45.7 36.5 45.7C36.9 45.4 37 45.1 37.2 44.9Z" fill="white"/>
<path d="M38.55 29.5001C38.7433 29.5001 38.9 29.3434 38.9 29.1501C38.9 28.9568 38.7433 28.8 38.55 28.8C38.3567 28.8 38.2 28.9568 38.2 29.1501C38.2 29.3434 38.3567 29.5001 38.55 29.5001Z" fill="#018992"/>
<path fill-rule="evenodd" clip-rule="evenodd" d="M8.9 52.5C5.7 52.5 3.1 55.1 3.1 58.3C3.1 61.5 5.7 64.1 8.9 64.1C12.1 64.1 14.7 61.5 14.7 58.3C14.8 55.1 12.2 52.5 8.9 52.5Z" fill="white" fill-opacity="0.1"/>
<path fill-rule="evenodd" clip-rule="evenodd" d="M3 69.6V72.8V79.2V85.7C3 88.9 5.6 91.5 8.8 91.5C12 91.5 14.6 88.9 14.6 85.7V68.9L29.2 77.3C32 78.9 35.6 77.9 37.2 75.2C38.8 72.4 37.8 68.8 35.1 67.2L20.6 58.8L35.1 50.4C37.9 48.8 38.9 45.2 37.2 42.4C35.6 39.6 32 38.6 29.2 40.3L14.7 48.7V31.8C14.7 28.6 12.1 26 8.9 26C5.6 26 3 28.6 3 31.8V48.1C3 48.8 3.5 49.3 4.2 49.3C4.4 49.3 4.5 49.3 4.7 49.2C6 48.7 7.4 48.3 8.8 48.3C10.1 48.3 11.3 48.5 12.5 49L12.6 49.1C13 49.3 13.5 49.5 13.9 49.7C14.3 49.9 14.7 50.2 15.1 50.5L15.2 50.6C16.2 51.4 17 52.4 17.7 53.5C18.3 54.6 18.8 55.8 19 57.1V57.2C19.1 57.7 19.1 58.2 19.1 58.6C19.1 59.1 19.1 59.6 19 60V60.1C18.8 61.4 18.4 62.6 17.7 63.7C17.1 64.8 16.2 65.8 15.2 66.6L15.1 66.7C14.7 67 14.3 67.3 13.9 67.5C13.5 67.7 13.1 67.9 12.6 68.1L12.5 68.2C12.2 68.3 11.9 68.5 11.6 68.6C10.7 68.9 9.7 68.9 8.8 68.9C7.4 68.9 6 68.6 4.7 68.1C4.5 68 4.3 68 4.2 68C3.5 68 3 68.5 3 69.2V69.6V69.6Z" fill="white" fill-opacity="0.1"/>
</svg>
