<svg  viewbox="0 0 80 80" fill="none" xmlns="http://www.w3.org/2000/svg">
<g clip-path="url(#clip0_1041_13294)">
<path d="M16 0H64C72.8 0 80 7.2 80 16V64C80 72.8 72.8 80 64 80H16C7.2 80 0 72.8 0 64V16C0 7.2 7.2 0 16 0Z" fill="#018992"/>
<path fill-rule="evenodd" clip-rule="evenodd" d="M10.9 52.5C7.70001 52.5 5.10001 55.1 5.10001 58.3C5.10001 61.5 7.70001 64.1 10.9 64.1C14.1 64.1 16.7 61.5 16.7 58.3C16.8 55.1 14.2 52.5 10.9 52.5Z" fill="white" fill-opacity="0.1"/>
<path fill-rule="evenodd" clip-rule="evenodd" d="M5 69.6V72.8V79.2V85.7C5 88.9 7.6 91.5 10.8 91.5C14 91.5 16.6 88.9 16.6 85.7V68.9L31.2 77.3C34 78.9 37.6 77.9 39.2 75.2C40.8 72.4 39.8 68.8 37.1 67.2L22.6 58.8L37.1 50.4C39.9 48.8 40.9 45.2 39.2 42.4C37.6 39.6 34 38.6 31.2 40.3L16.7 48.7V31.8C16.7 28.6 14.1 26 10.9 26C7.6 26 5 28.6 5 31.8V48.1C5 48.8 5.5 49.3 6.2 49.3C6.4 49.3 6.5 49.3 6.7 49.2C8 48.7 9.4 48.3 10.8 48.3C12.1 48.3 13.3 48.5 14.5 49L14.6 49.1C15 49.3 15.5 49.5 15.9 49.7C16.3 49.9 16.7 50.2 17.1 50.5L17.2 50.6C18.2 51.4 19 52.4 19.7 53.5C20.3 54.6 20.8 55.8 21 57.1V57.2C21.1 57.7 21.1 58.2 21.1 58.6C21.1 59.1 21.1 59.6 21 60V60.1C20.8 61.4 20.4 62.6 19.7 63.7C19.1 64.8 18.2 65.8 17.2 66.6L17.1 66.7C16.7 67 16.3 67.3 15.9 67.5C15.5 67.7 15.1 67.9 14.6 68.1L14.5 68.2C14.2 68.3 13.9 68.5 13.6 68.6C12.7 68.9 11.7 68.9 10.8 68.9C9.4 68.9 8 68.6 6.7 68.1C6.5 68 6.3 68 6.2 68C5.5 68 5 68.5 5 69.2V69.6V69.6Z" fill="white" fill-opacity="0.1"/>
<path fill-rule="evenodd" clip-rule="evenodd" d="M46.8554 41.7C45.7554 39.8 44.3554 37.4 42.4554 34.2C42.4554 33.3 42.4554 32.4 42.4554 31.6C43.3554 31.6 43.9554 30.9 43.9554 30.1C43.9554 29.4 43.4554 28.8 42.7554 28.6C40.8554 28.6 39.0554 28.6 37.1554 28.5C36.3554 28.7 35.8554 29.3 35.8554 30.1C35.8554 30.9 36.5554 31.7 37.5554 31.7C37.5554 32.6 37.5554 33.5 37.5554 34.4C36.8554 35.5 35.7554 37.4 34.3554 39.6C32.3554 42.8 31.6554 44.2 32.1554 45.3C32.4554 46.1 33.2554 46.5 33.8554 46.7C34.2554 46.7 36.8554 46.7 39.7554 46.7C42.8554 46.7 45.4554 46.7 45.8554 46.7C46.4554 46.6 47.3554 46.3 47.7554 45.5C48.3554 44.3 47.5554 42.8 46.8554 41.7ZM37.4554 43.9C36.9554 43.9 36.6554 43.5 36.6554 43.1C36.6554 42.6 37.0554 42.3 37.4554 42.3C37.9554 42.3 38.2554 42.7 38.2554 43.1C38.2554 43.5 37.8554 43.9 37.4554 43.9ZM37.7554 41.5C37.2554 41.5 36.9554 41.1 36.9554 40.7C36.9554 40.2 37.3554 39.9 37.7554 39.9C38.2554 39.9 38.5554 40.3 38.5554 40.7C38.6554 41.1 38.2554 41.5 37.7554 41.5ZM39.6554 42.9C39.1554 42.9 38.8554 42.5 38.8554 42.1C38.8554 41.6 39.2554 41.3 39.6554 41.3C40.1554 41.3 40.4554 41.7 40.4554 42.1C40.5554 42.5 40.1554 42.9 39.6554 42.9ZM36.2554 38.5C37.0554 37.2 37.7554 35.8 38.5554 34.5V30.6C38.1554 30.6 37.7554 30.6 37.4554 30.6C37.1554 30.5 37.0554 30.3 37.0554 30C37.0554 29.8 37.2554 29.6 37.4554 29.5C39.1554 29.5 40.8554 29.5 42.6554 29.5C42.8554 29.6 43.0554 29.8 43.0554 30.1C43.0554 30.4 42.8554 30.6 42.6554 30.7C42.2554 30.7 41.8554 30.7 41.4554 30.7C41.4554 32 41.4554 33.2 41.4554 34.5C42.2554 35.9 43.0554 37.2 43.7554 38.6C41.2554 38.5 38.7554 38.5 36.2554 38.5Z" fill="white"/>
<path d="M26.5 23H53C53.8 23 54.5 23.3 55 23.7C55.6 24.2 56 24.9 56 25.7V51.4C56 52.2 55.6 52.9 55 53.4C54.5 53.9 53.7 54.1 53 54.1H40.3H39.5L39.2 53.4C39.2 53.3 39.1 53.2 39.1 53.1C39.1 53 39 52.9 38.9 52.8L38.8 52.7C38.5 52.1 38 51.7 37.5 51.3C37 51 36.3 50.8 35.7 50.8C34.9 50.8 34.2 51.1 33.6 51.5C33 51.9 32.5 52.6 32.3 53.3L32 54.2H31.2H26.5C25.7 54.2 25 53.9 24.5 53.5C23.9 53 23.5 52.3 23.5 51.5V25.7C23.5 24.9 23.9 24.2 24.5 23.7C25 23.3 25.7 23 26.5 23ZM53 25.3H26.5C26.3 25.3 26.1 25.4 25.9 25.5C25.8 25.6 25.8 25.6 25.8 25.7V51.4C25.8 51.5 25.9 51.6 25.9 51.6C26 51.7 26.2 51.8 26.5 51.8H30.4C30.8 50.9 31.5 50.2 32.2 49.6C33.2 48.9 34.4 48.5 35.7 48.5C36.8 48.5 37.8 48.8 38.7 49.3C39.6 49.8 40.3 50.6 40.8 51.5C40.9 51.6 40.9 51.7 41 51.8H53C53.2 51.8 53.4 51.7 53.6 51.6C53.7 51.5 53.7 51.5 53.7 51.4V25.7C53.7 25.6 53.6 25.5 53.6 25.5C53.4 25.4 53.2 25.3 53 25.3Z" fill="white"/>
<path d="M56 34.1H65.2C66.2 34.1 70.2 39.9 72.3 42.9C72.8 43.6 73.2 44.2 73.3 44.3L73.5 45V51.7C73.5 52.3 73.3 52.9 72.9 53.4C72.5 53.9 71.9 54.2 71.2 54.2H68.1H67.3L67 53.4C66.8 52.7 66.3 52 65.7 51.6C65.1 51.2 64.4 50.9 63.6 50.9C62.8 50.9 62.1 51.2 61.5 51.6C60.9 52 60.4 52.7 60.2 53.4L59.9 54.2H59.1H56C55.3 54.2 54.8 53.9 54.3 53.4C53.9 53 53.7 52.4 53.7 51.7V36.6C53.7 36 53.9 35.4 54.3 34.9C54.8 34.4 55.3 34.1 56 34.1ZM65.2 36.4H56.1C56.1 36.4 56.1 36.5 56.1 36.6V51.7C56.1 51.8 56.1 51.8 56.1 51.9H58.3C58.7 51 59.4 50.3 60.1 49.7C61.1 49 62.3 48.6 63.6 48.6C64.9 48.6 66.1 49 67.1 49.7C67.9 50.3 68.5 51 68.9 51.9H71.1C71.1 51.9 71.1 51.8 71.1 51.7V45.4C70.9 45.1 70.6 44.7 70.3 44.2C68.6 41.6 65.4 36.4 65.2 36.4Z" fill="white"/>
<path d="M69.3 38.6C70.5 40.3 71.6 41.9 72.3 42.9C72.8 43.6 73.2 44.2 73.3 44.3L73.5 45V46.2V47.4H72.3H64.2C63 47.4 62 46.9 61.2 46.2C60.4 45.4 60 44.4 60 43.2V42.4C60 41.2 60.5 40.2 61.2 39.4C62 38.6 63 38.2 64.2 38.2H68.3H68.9L69.3 38.6ZM70.4 44.2C69.6 43.1 68.6 41.6 67.8 40.4H64.3C63.8 40.4 63.3 40.6 62.9 41C62.6 41.3 62.3 41.8 62.3 42.4V43.2C62.3 43.7 62.5 44.2 62.9 44.6C63.2 44.9 63.7 45.2 64.3 45.2H71C70.8 44.8 70.6 44.5 70.4 44.2Z" fill="white"/>
<path d="M63.6 48.6C65.2 48.6 66.7 49.3 67.8 50.3C68.9 51.4 69.5 52.9 69.5 54.5C69.5 56.1 68.8 57.6 67.8 58.7C66.7 59.8 65.2 60.4 63.6 60.4C62 60.4 60.5 59.7 59.4 58.7C58.3 57.6 57.7 56.1 57.7 54.5C57.7 52.9 58.4 51.4 59.4 50.3C60.5 49.2 62 48.6 63.6 48.6ZM66.2 51.9C65.5 51.2 64.6 50.8 63.6 50.8C62.6 50.8 61.7 51.2 61 51.9C60.3 52.6 60 53.5 60 54.5C60 55.5 60.4 56.4 61.1 57.1C61.8 57.8 62.7 58.2 63.7 58.2C64.7 58.2 65.6 57.8 66.3 57.1C67 56.4 67.4 55.5 67.4 54.5C67.3 53.5 66.9 52.6 66.2 51.9Z" fill="white"/>
<path d="M21.2 36.6C21.7 36.6 22.2 36.1 22.2 35.4C22.2 34.8 21.8 34.2 21.2 34.2H10.5C10 34.2 9.5 34.7 9.5 35.4C9.5 36 9.9 36.6 10.5 36.6H21.2Z" fill="white"/>
<path d="M21.2 42.6C21.7 42.6 22.1 42.1 22.1 41.4C22.1 40.8 21.7 40.2 21.2 40.2H5.9C5.4 40.2 5 40.7 5 41.4C5 42 5.4 42.6 5.9 42.6H21.2Z" fill="white"/>
<path d="M21.2 48.6C21.8 48.6 22.2 48.1 22.2 47.4C22.2 46.8 21.7 46.2 21.2 46.2H10C9.4 46.2 9 46.7 9 47.4C9 48 9.5 48.6 10 48.6H21.2Z" fill="white"/>
<path d="M35.7 48.6C37.3 48.6 38.8 49.3 39.9 50.3C41 51.4 41.6 52.9 41.6 54.5C41.6 56.1 40.9 57.6 39.9 58.7C38.8 59.8 37.3 60.4 35.7 60.4C34.1 60.4 32.6 59.7 31.5 58.7C30.4 57.6 29.8 56.1 29.8 54.5C29.8 52.9 30.5 51.4 31.5 50.3C32.6 49.2 34.1 48.6 35.7 48.6ZM38.3 51.9C37.6 51.2 36.7 50.8 35.7 50.8C34.7 50.8 33.8 51.2 33.1 51.9C32.4 52.6 32 53.5 32 54.5C32 55.5 32.4 56.4 33.1 57.1C33.8 57.8 34.7 58.2 35.7 58.2C36.7 58.2 37.6 57.8 38.3 57.1C39 56.4 39.4 55.5 39.4 54.5C39.3 53.5 38.9 52.6 38.3 51.9Z" fill="white"/>
<path fill-rule="evenodd" clip-rule="evenodd" d="M63.6 55.6C64.2 55.6 64.7 55.1 64.7 54.5C64.7 53.9 64.2 53.4 63.6 53.4C63 53.4 62.5 53.9 62.5 54.5C62.5 55.1 63 55.6 63.6 55.6Z" fill="white"/>
<path fill-rule="evenodd" clip-rule="evenodd" d="M35.7 55.6C36.3 55.6 36.8 55.1 36.8 54.5C36.8 53.9 36.3 53.4 35.7 53.4C35.1 53.4 34.6 53.9 34.6 54.5C34.6 55.1 35.1 55.6 35.7 55.6Z" fill="white"/>
</g>
<defs>
<clipPath id="clip0_1041_13294">
<rect width="80" height="91.5" fill="white"/>
</clipPath>
</defs>
</svg>
