<svg  viewbox="0 0 80 80" fill="none" xmlns="http://www.w3.org/2000/svg">
<g clip-path="url(#clip0_1056_12819)">
<path d="M16 0H64C72.8 0 80 7.2 80 16V64C80 72.8 72.8 80 64 80H16C7.2 80 0 72.8 0 64V16C0 7.2 7.2 0 16 0Z" fill="#DE5738"/>
<path fill-rule="evenodd" clip-rule="evenodd" d="M10.9 52.5C7.70001 52.5 5.10001 55.1 5.10001 58.3C5.10001 61.5 7.70001 64.1 10.9 64.1C14.1 64.1 16.7 61.5 16.7 58.3C16.8 55.1 14.2 52.5 10.9 52.5Z" fill="white" fill-opacity="0.1"/>
<path fill-rule="evenodd" clip-rule="evenodd" d="M5 69.6V72.8V79.2V85.7C5 88.9 7.6 91.5 10.8 91.5C14 91.5 16.6 88.9 16.6 85.7V68.9L31.2 77.3C34 78.9 37.6 77.9 39.2 75.2C40.8 72.4 39.8 68.8 37.1 67.2L22.6 58.8L37.1 50.4C39.9 48.8 40.9 45.2 39.2 42.4C37.6 39.6 34 38.6 31.2 40.3L16.7 48.7V31.8C16.7 28.6 14.1 26 10.9 26C7.6 26 5 28.6 5 31.8V48.1C5 48.8 5.5 49.3 6.2 49.3C6.4 49.3 6.5 49.3 6.7 49.2C8 48.7 9.4 48.3 10.8 48.3C12.1 48.3 13.3 48.5 14.5 49L14.6 49.1C15 49.3 15.5 49.5 15.9 49.7C16.3 49.9 16.7 50.2 17.1 50.5L17.2 50.6C18.2 51.4 19 52.4 19.7 53.5C20.3 54.6 20.8 55.8 21 57.1V57.2C21.1 57.7 21.1 58.2 21.1 58.6C21.1 59.1 21.1 59.6 21 60V60.1C20.8 61.4 20.4 62.6 19.7 63.7C19.1 64.8 18.2 65.8 17.2 66.6L17.1 66.7C16.7 67 16.3 67.3 15.9 67.5C15.5 67.7 15.1 67.9 14.6 68.1L14.5 68.2C14.2 68.3 13.9 68.5 13.6 68.6C12.7 68.9 11.7 68.9 10.8 68.9C9.4 68.9 8 68.6 6.7 68.1C6.5 68 6.3 68 6.2 68C5.5 68 5 68.5 5 69.2V69.6Z" fill="white" fill-opacity="0.1"/>
<path fill-rule="evenodd" clip-rule="evenodd" d="M39.5107 42.8357C34.6 42.8357 31.9214 38.9071 31.7429 38.55C32.1 38.1036 32.4571 37.5678 32.9929 37.0321C33.6179 36.3178 34.2429 35.7821 34.8679 35.425C34.7786 35.7821 34.1536 37.5678 35.1357 39.4428C36.0286 41.1393 37.725 42.2107 39.6 42.2107C41.9214 42.2107 43.2607 40.6036 43.4393 40.425C45.225 38.2821 44.4214 35.6036 44.3321 35.425C44.8679 35.8714 45.5821 36.4071 46.2071 37.0321C46.6536 37.4786 47.0107 38.0143 47.3679 38.3714C47.2786 38.7286 44.6 42.8357 39.5107 42.8357ZM39.6 32.3C35.3143 32.3 31.475 34.8 29.6 38.6393C31.475 42.3893 35.3143 44.8 39.6 44.8C43.8857 44.8 47.725 42.3893 49.6 38.55C47.8143 34.7107 43.8857 32.3 39.6 32.3ZM39.6 39.5321C38.5286 39.5321 37.725 38.6393 37.725 37.5678C37.725 36.4964 38.6179 35.6036 39.6 35.6036C40.6714 35.6036 41.475 36.4964 41.475 37.5678C41.5643 38.6393 40.6714 39.5321 39.6 39.5321Z" fill="white"/>
<path d="M26.4 23.2H52.9C53.7 23.2 54.4 23.5 54.9 23.9C55.5 24.4 55.9 25.1 55.9 25.9V51.6C55.9 52.4 55.5 53.1 54.9 53.6C54.4 54.1 53.6 54.3 52.9 54.3H40.3H39.5L39.2 53.6C39.2 53.5 39.1 53.4 39.1 53.3C39.1 53.2 39 53.1 38.9 53L38.8 52.9C38.5 52.3 38 51.9 37.5 51.5C37 51.2 36.3 51 35.7 51C34.9 51 34.2 51.3 33.6 51.7C33 52.1 32.5 52.8 32.3 53.5L32 54.3H31.2H26.5C25.7 54.3 25 54 24.5 53.6C23.9 53.1 23.5 52.4 23.5 51.6V26C23.5 25.2 23.9 24.5 24.5 24C24.9 23.5 25.6 23.2 26.4 23.2ZM52.9 25.6H26.4C26.2 25.6 26 25.7 25.8 25.8C25.7 25.9 25.7 25.9 25.7 26V51.7C25.7 51.8 25.8 51.9 25.8 51.9C25.9 52 26.1 52.1 26.4 52.1H30.3C30.7 51.2 31.4 50.5 32.1 49.9C33.1 49.2 34.3 48.8 35.6 48.8C36.7 48.8 37.7 49.1 38.6 49.6C39.5 50.1 40.2 50.9 40.7 51.8C40.8 51.9 40.8 52 40.9 52.1H52.8C53 52.1 53.2 52 53.4 51.9C53.5 51.8 53.5 51.8 53.5 51.7V26C53.5 25.9 53.4 25.8 53.4 25.8C53.3 25.6 53.1 25.6 52.9 25.6Z" fill="white"/>
<path d="M55.9 34.4H65.1C66.1 34.4 70.1 40.2 72.2 43.2C72.7 43.9 73.1 44.5 73.2 44.6L73.4 45.3V52C73.4 52.6 73.2 53.2 72.8 53.7C72.4 54.2 71.8 54.5 71.1 54.5H68H67.2L67 53.6C66.8 52.9 66.3 52.2 65.7 51.8C65.1 51.4 64.4 51.1 63.6 51.1C62.8 51.1 62.1 51.4 61.5 51.8C60.9 52.2 60.4 52.9 60.2 53.6L59.9 54.4H59H55.9C55.2 54.4 54.7 54.1 54.2 53.6C53.8 53.2 53.6 52.6 53.6 51.9V36.8C53.6 36.2 53.8 35.6 54.2 35.1C54.7 34.7 55.3 34.4 55.9 34.4ZM65.2 36.7H56C56 36.7 56 36.8 56 36.9V52C56 52.1 56 52.1 56 52.2H58.2C58.6 51.3 59.3 50.6 60 50C61 49.3 62.2 48.9 63.5 48.9C64.8 48.9 66 49.3 67 50C67.8 50.6 68.4 51.3 68.8 52.2H71C71 52.2 71 52.1 71 52V45.7C70.8 45.4 70.5 45 70.2 44.5C68.5 41.8 65.3 36.7 65.2 36.7Z" fill="white"/>
<path d="M69.2 38.8C70.4 40.5 71.5 42.1 72.2 43.1C72.7 43.8 73.1 44.4 73.2 44.5L73.4 45.2V46.4V47.6H72.2H64.1C62.9 47.6 61.9 47.1 61.1 46.4C60.3 45.6 59.9 44.6 59.9 43.4V42.6C59.9 41.4 60.4 40.4 61.1 39.6C61.9 38.8 62.9 38.4 64.1 38.4H68.2H68.8L69.2 38.8ZM70.3 44.4C69.5 43.3 68.5 41.8 67.7 40.6H64.2C63.7 40.6 63.2 40.8 62.8 41.2C62.5 41.5 62.2 42 62.2 42.6V43.4C62.2 43.9 62.4 44.4 62.8 44.8C63.1 45.1 63.6 45.4 64.2 45.4H71C70.7 45 70.6 44.7 70.3 44.4Z" fill="white"/>
<path d="M63.6 48.8C65.2 48.8 66.7 49.5 67.8 50.5C68.9 51.6 69.5 53.1 69.5 54.7C69.5 56.3 68.8 57.8 67.8 58.9C66.7 60 65.2 60.6 63.6 60.6C62 60.6 60.5 59.9 59.4 58.9C58.3 57.8 57.7 56.3 57.7 54.7C57.7 53.1 58.4 51.6 59.4 50.5C60.5 49.4 61.9 48.8 63.6 48.8ZM66.1 52.1C65.4 51.4 64.5 51 63.5 51C62.5 51 61.6 51.4 60.9 52.1C60.2 52.8 59.8 53.7 59.8 54.7C59.8 55.7 60.2 56.6 60.9 57.3C61.6 58 62.5 58.4 63.5 58.4C64.5 58.4 65.4 58 66.1 57.3C66.8 56.6 67.2 55.7 67.2 54.7C67.2 53.7 66.8 52.8 66.1 52.1Z" fill="white"/>
<path d="M21.1 36.9C21.6 36.9 22.1 36.4 22.1 35.7C22.1 35.1 21.7 34.5 21.1 34.5H10.5C10 34.5 9.5 35 9.5 35.7C9.5 36.3 9.9 36.9 10.5 36.9H21.1Z" fill="white"/>
<path d="M21.2 42.8C21.7 42.8 22.1 42.3 22.1 41.6C22.1 41 21.7 40.4 21.2 40.4H5.79999C5.29999 40.4 4.89999 40.9 4.89999 41.6C4.89999 42.2 5.29999 42.8 5.79999 42.8H21.2Z" fill="white"/>
<path d="M21.1 48.8C21.7 48.8 22.1 48.3 22.1 47.6C22.1 47 21.6 46.4 21.1 46.4H9.89999C9.29999 46.4 8.89999 46.9 8.89999 47.6C8.89999 48.2 9.39999 48.8 9.89999 48.8H21.1Z" fill="white"/>
<path d="M35.6 48.8C37.2 48.8 38.7 49.5 39.8 50.5C40.9 51.6 41.5 53.1 41.5 54.7C41.5 56.3 40.8 57.8 39.8 58.9C38.7 60 37.2 60.6 35.6 60.6C34 60.6 32.5 59.9 31.4 58.9C30.3 57.8 29.7 56.3 29.7 54.7C29.7 53.1 30.4 51.6 31.4 50.5C32.5 49.4 34 48.8 35.6 48.8ZM38.2 52.1C37.5 51.4 36.6 51 35.6 51C34.6 51 33.7 51.4 33 52.1C32.3 52.8 31.9 53.7 31.9 54.7C31.9 55.7 32.3 56.6 33 57.3C33.7 58 34.6 58.4 35.6 58.4C36.6 58.4 37.5 58 38.2 57.3C38.9 56.6 39.3 55.7 39.3 54.7C39.2 53.7 38.8 52.8 38.2 52.1Z" fill="white"/>
<path fill-rule="evenodd" clip-rule="evenodd" d="M63.6 55.8C64.2 55.8 64.7 55.3 64.7 54.7C64.7 54.1 64.2 53.6 63.6 53.6C63 53.6 62.5 54.1 62.5 54.7C62.5 55.3 62.9 55.8 63.6 55.8Z" fill="white"/>
<path fill-rule="evenodd" clip-rule="evenodd" d="M35.6 55.8C36.2 55.8 36.7 55.3 36.7 54.7C36.7 54.1 36.2 53.6 35.6 53.6C35 53.6 34.5 54.1 34.5 54.7C34.5 55.3 35 55.8 35.6 55.8Z" fill="white"/>
<path fill-rule="evenodd" clip-rule="evenodd" d="M8.90001 52.5C5.70001 52.5 3.10001 55.1 3.10001 58.3C3.10001 61.5 5.70001 64.1 8.90001 64.1C12.1 64.1 14.7 61.5 14.7 58.3C14.8 55.1 12.2 52.5 8.90001 52.5Z" fill="white" fill-opacity="0.1"/>
<path fill-rule="evenodd" clip-rule="evenodd" d="M3 69.6V72.8V79.2V85.7C3 88.9 5.6 91.5 8.8 91.5C12 91.5 14.6 88.9 14.6 85.7V68.9L29.2 77.3C32 78.9 35.6 77.9 37.2 75.2C38.8 72.4 37.8 68.8 35.1 67.2L20.6 58.8L35.1 50.4C37.9 48.8 38.9 45.2 37.2 42.4C35.6 39.6 32 38.6 29.2 40.3L14.7 48.7V31.8C14.7 28.6 12.1 26 8.9 26C5.6 26 3 28.6 3 31.8V48.1C3 48.8 3.5 49.3 4.2 49.3C4.4 49.3 4.5 49.3 4.7 49.2C6 48.7 7.4 48.3 8.8 48.3C10.1 48.3 11.3 48.5 12.5 49L12.6 49.1C13 49.3 13.5 49.5 13.9 49.7C14.3 49.9 14.7 50.2 15.1 50.5L15.2 50.6C16.2 51.4 17 52.4 17.7 53.5C18.3 54.6 18.8 55.8 19 57.1V57.2C19.1 57.7 19.1 58.2 19.1 58.6C19.1 59.1 19.1 59.6 19 60V60.1C18.8 61.4 18.4 62.6 17.7 63.7C17.1 64.8 16.2 65.8 15.2 66.6L15.1 66.7C14.7 67 14.3 67.3 13.9 67.5C13.5 67.7 13.1 67.9 12.6 68.1L12.5 68.2C12.2 68.3 11.9 68.5 11.6 68.6C10.7 68.9 9.7 68.9 8.8 68.9C7.4 68.9 6 68.6 4.7 68.1C4.5 68 4.3 68 4.2 68C3.5 68 3 68.5 3 69.2V69.6V69.6Z" fill="white" fill-opacity="0.1"/>
</g>
<defs>
<clipPath id="clip0_1056_12819">
<rect width="80" height="91.5" fill="white"/>
</clipPath>
</defs>
</svg>
