<svg width="31" height="30" viewbox="0 0 31 30"  xmlns="http://www.w3.org/2000/svg">
<path d="M15.5 30C23.7843 30 30.5 23.2843 30.5 15C30.5 6.71573 23.7843 0 15.5 0C7.21573 0 0.5 6.71573 0.5 15C0.5 23.2843 7.21573 30 15.5 30Z" />
<path d="M5.65723 15.0676C5.69094 14.326 6.19656 13.4496 7.27521 12.944C8.32015 12.4721 9.33139 12.5395 10.2078 13.3148C10.9831 13.989 11.6572 14.7305 12.3988 15.4384C12.8707 15.8766 12.8707 15.8766 13.3426 15.4721C15.7359 13.4496 18.0954 11.3935 20.4887 9.37098C21.7359 8.32603 23.455 8.42716 24.4662 9.60693C25.5449 10.8541 25.41 12.5732 24.1291 13.6519C20.9943 16.3485 17.8932 19.0114 14.7584 21.7081C13.2752 22.989 11.8595 22.9215 10.4775 21.5395C9.19656 20.2249 7.91566 18.944 6.63476 17.6631C6.02802 17.0564 5.62352 16.3822 5.65723 15.0676Z" fill="white"/>
</svg>
