<svg width="31" height="30" viewbox="0 0 31 30" fill="none" xmlns="http://www.w3.org/2000/svg">
<g clip-path="url(#clip0_1239_13904)">
<path d="M15.5 30C23.7843 30 30.5 23.2843 30.5 15C30.5 6.71573 23.7843 0 15.5 0C7.21573 0 0.5 6.71573 0.5 15C0.5 23.2843 7.21573 30 15.5 30Z" fill="#E52937"/>
</g>
<g clip-path="url(#clip1_1239_13904)">
<path d="M19.2365 6.8469C17.908 8.35797 16.5796 9.88564 15.2512 11.3967C13.79 10.1181 12.3287 8.83952 10.8841 7.57753C8.4265 5.40225 4.85639 9.07199 7.34716 11.2473C8.85823 12.5757 10.3859 13.9041 11.897 15.2325C10.6184 16.6938 9.33978 18.155 8.07779 19.5997C5.91912 22.0738 9.58886 25.6273 11.7641 23.1366C13.0925 21.6255 14.421 20.0978 15.7494 18.5868C17.2106 19.8653 18.6719 21.1439 20.1165 22.4059C22.5907 24.5646 26.1442 20.8949 23.6534 18.7196C22.1424 17.3912 20.6147 16.0628 19.1036 14.7344C20.3822 13.2731 21.6608 11.8118 22.9228 10.3672C25.0815 7.92624 21.4117 4.35613 19.2365 6.8469Z" fill="white"/>
</g>
<defs>
<clipPath id="clip0_1239_13904">
<rect width="30" height="30" fill="white" transform="translate(0.5)"/>
</clipPath>
<clipPath id="clip1_1239_13904">
<rect width="18" height="18" fill="white" transform="translate(6.5 6)"/>
</clipPath>
</defs>
</svg>
