<svg width="351" height="287" viewbox="0 0 351 287" fill="none" xmlns="http://www.w3.org/2000/svg">
<path fill-rule="evenodd" clip-rule="evenodd" d="M188.23 155.76H162.32C161.49 155.76 160.85 156.42 160.85 157.25V211.85C160.85 212.68 161.49 213.34 162.32 213.34H188.2C189.03 213.34 189.68 212.68 189.68 211.85V157.25C189.68 156.43 189.06 155.76 188.23 155.76ZM19.91 39.86H113.12V14.1C113.12 6.34 119.46 0 127.21 0H223.34C231.09 0 237.43 6.34 237.43 14.1V39.86H330.64C341.54 39.86 350.55 48.88 350.55 59.77V107.87C328.04 123.3 304.82 136.45 280.88 147.18C256.81 157.96 231.99 166.32 206.31 172.09V152.86C206.31 143.98 199.16 136.82 190.28 136.82H160.24C151.36 136.82 144.21 143.98 144.21 152.86V171.65C119.22 165.92 95 157.71 71.52 147.18C46.93 136.17 23.1 122.56 0 106.58V59.77C0 48.86 9.01 39.86 19.91 39.86ZM350.55 136.4V266.94C350.551 269.553 350.033 272.139 349.025 274.55C348.018 276.96 346.541 279.146 344.68 280.98C341.05 284.59 336.08 286.85 330.64 286.85H19.91C14.41 286.85 9.45 284.59 5.88 280.98C2.25 277.35 0 272.39 0 266.94V135.2C19.65 147.8 39.88 158.82 60.68 168.14C87.53 180.19 115.37 189.4 144.23 195.56V216.24C144.23 225.12 151.39 232.28 160.27 232.28H190.31C199.18 232.28 206.34 225.12 206.34 216.24V195.94C235.75 189.78 264.35 180.42 291.76 168.12C311.9 159.1 331.49 148.49 350.55 136.4ZM137.99 19.2C137.04 19.2 136.2 20.05 136.2 21V39.31H214.33V21C214.33 20.04 213.48 19.2 212.54 19.2H137.99Z" />
</svg>
