<svg  viewbox="0 0 80 80" fill="none" xmlns="http://www.w3.org/2000/svg">
<g clip-path="url(#clip0_1056_12864)">
<path fill-rule="evenodd" clip-rule="evenodd" d="M10.9 52.5C7.7 52.5 5.1 55.1 5.1 58.3C5.1 61.5 7.7 64.1 10.9 64.1C14.1 64.1 16.7 61.5 16.7 58.3C16.8 55.1 14.2 52.5 10.9 52.5Z" fill="white" fill-opacity="0.1"/>
<path fill-rule="evenodd" clip-rule="evenodd" d="M5 69.6V72.8V79.2V85.7C5 88.9 7.6 91.5 10.8 91.5C14 91.5 16.6 88.9 16.6 85.7V68.9L31.2 77.3C34 78.9 37.6 77.9 39.2 75.2C40.8 72.4 39.8 68.8 37.1 67.2L22.6 58.8L37.1 50.4C39.9 48.8 40.9 45.2 39.2 42.4C37.6 39.6 34 38.6 31.2 40.3L16.7 48.7V31.8C16.7 28.6 14.1 26 10.9 26C7.6 26 5 28.6 5 31.8V48.1C5 48.8 5.5 49.3 6.2 49.3C6.4 49.3 6.5 49.3 6.7 49.2C8 48.7 9.4 48.3 10.8 48.3C12.1 48.3 13.3 48.5 14.5 49L14.6 49.1C15 49.3 15.5 49.5 15.9 49.7C16.3 49.9 16.7 50.2 17.1 50.5L17.2 50.6C18.2 51.4 19 52.4 19.7 53.5C20.3 54.6 20.8 55.8 21 57.1V57.2C21.1 57.7 21.1 58.2 21.1 58.6C21.1 59.1 21.1 59.6 21 60V60.1C20.8 61.4 20.4 62.6 19.7 63.7C19.1 64.8 18.2 65.8 17.2 66.6L17.1 66.7C16.7 67 16.3 67.3 15.9 67.5C15.5 67.7 15.1 67.9 14.6 68.1L14.5 68.2C14.2 68.3 13.9 68.5 13.6 68.6C12.7 68.9 11.7 68.9 10.8 68.9C9.4 68.9 8 68.6 6.7 68.1C6.5 68 6.3 68 6.2 68C5.5 68 5 68.5 5 69.2V69.6Z" fill="white" fill-opacity="0.1"/>
<path fill-rule="evenodd" clip-rule="evenodd" d="M34.0279 14.3124C32.0419 15.0529 30.2451 16.9041 29.6777 18.7554C29.5831 19.2182 29.4885 20.1438 29.4885 21.2546C29.5831 23.1984 30.0559 24.4943 31.0962 25.8827C32.7039 27.8265 36.4867 29.7703 41.3098 31.1587C46.4166 32.5472 47.5514 33.2877 48.0243 35.2315C48.7808 38.286 47.1731 41.7108 44.1469 43.1918C43.3903 43.5621 42.6338 43.8398 42.5392 43.8398C42.3501 43.8398 42.2555 44.21 42.2555 45.5059V47.172L43.1066 47.0795C45.1872 46.8018 48.2134 45.2282 49.9157 43.5621C51.9962 41.5257 52.7528 39.0265 52.4691 35.7869C51.9962 31.529 49.8211 29.5852 44.0523 28.2893C37.9053 26.9009 36.865 26.6232 35.7302 26.0678C33.3659 24.8645 32.1365 23.2909 32.1365 20.9769C32.1365 18.4777 33.2713 16.719 35.1627 16.1636C37.3379 15.5157 39.513 16.4413 40.4587 18.2926C40.9315 19.1256 40.8369 19.2182 40.0804 20.0513C39.513 20.6992 39.4184 20.8843 39.513 21.4397C39.7021 22.3653 40.4587 23.8463 41.3098 24.6794C41.8772 25.3273 42.1609 25.4199 42.6338 25.4199C43.1066 25.3273 43.2958 25.2348 43.6741 24.4943C44.1469 23.4761 44.6198 21.162 44.4306 20.4215C44.336 20.1438 44.0523 19.7736 43.6741 19.4959C43.1066 19.2182 42.9175 18.848 42.6338 17.9223C42.0664 16.3488 41.4044 15.4231 40.0804 14.6826C39.1347 14.2198 38.851 14.1273 37.0541 14.0347C35.3519 13.9421 34.7845 14.0347 34.0279 14.3124ZM15.3976 33.4728C15.2084 33.6579 15.6813 34.3059 16.2487 34.491C16.5324 34.6761 17.8564 34.9538 19.0858 35.1389C22.3958 35.6943 23.436 36.2497 26.2731 38.4712C28.4483 40.2299 29.8668 41.248 31.6636 42.0811C33.3659 42.8216 36.5813 43.7472 37.7161 43.7472C39.0401 43.7472 38.9455 43.5621 38.9455 48.2828C38.9455 53.096 38.851 52.8183 40.5532 52.8183H41.5935V48.0976V43.377L42.4446 43.0993C45.5655 42.1737 47.3623 40.1373 47.5514 37.2679C47.646 35.6943 47.3623 34.6761 46.6057 33.9356L46.0383 33.3802H30.8125C22.3012 33.3802 15.3976 33.3802 15.3976 33.4728ZM53.1311 33.4728C52.9419 33.5654 52.9419 33.7505 53.1311 34.2133C53.2256 34.5835 53.3202 35.8794 53.3202 36.9902C53.3202 38.1935 53.4148 39.1191 53.4148 39.1191C53.4148 39.1191 54.0768 38.6563 54.7388 38.1009C57.1976 36.1571 58.2379 35.6943 60.8858 35.2315C61.8315 35.0464 62.9664 34.8612 63.3447 34.7687C64.1958 34.5835 65.2361 33.7505 64.9523 33.4728C64.9523 33.3802 53.6039 33.2877 53.1311 33.4728ZM36.2976 45.3208C33.8388 46.5241 32.7039 48.0051 32.7039 50.2266C32.7039 51.8001 33.1768 52.9109 34.3116 54.0216C35.3519 55.0398 37.2433 55.9654 38.851 56.2431C41.0261 56.6134 44.6198 55.8729 46.7003 54.577C48.2134 53.6514 48.8754 52.6332 48.8754 51.4299C48.8754 49.3935 47.4569 48.3753 44.5252 48.1902C42.4446 48.0976 42.2555 48.1902 42.3501 49.6712L42.4446 50.6894H43.4849C46.8894 50.782 44.8089 53.2811 41.1207 53.5588C38.5673 53.7439 36.4867 52.7258 36.0139 51.1522C35.7302 50.2266 36.1084 49.4861 37.3378 48.653L38.189 48.0976V46.4315C38.0944 44.4877 38.0944 44.4877 36.2976 45.3208ZM37.1487 50.3191C36.5813 50.782 36.5813 50.782 36.9596 51.3373C37.3379 51.8927 37.8107 52.263 38.0944 52.263C38.2836 52.263 38.189 49.9489 37.9053 49.8563C37.7161 49.8563 37.4324 50.0415 37.1487 50.3191ZM34.3116 56.3357C34.3116 58.6498 35.8247 60.8713 37.8107 61.4266C38.3781 61.6117 39.7021 61.7969 40.8369 61.7969C43.2958 61.8894 44.4306 62.1671 45.8492 62.6299C47.0786 63.0927 47.2677 63.0002 46.6057 62.2597C45.9437 61.5192 44.9035 61.1489 42.8229 60.5936C38.4727 59.4828 37.6216 59.02 37.1487 57.4464C36.9596 56.6134 36.7704 56.5208 35.7302 55.8729C35.0682 55.5026 34.5007 55.2249 34.4062 55.2249C34.3116 55.3175 34.3116 55.7803 34.3116 56.3357ZM38.6618 57.9093C38.6618 58.6498 38.6618 58.6498 39.7021 59.02C40.2695 59.2051 40.9315 59.3903 41.2152 59.4828C41.6881 59.5754 41.6881 59.4828 41.7826 58.8349C41.7826 58.4646 41.7826 57.9093 41.6881 57.6316C41.5935 57.2613 41.4989 57.1688 40.175 57.1688H38.6618V57.9093ZM38.6618 63.9258C38.6618 65.8696 38.4727 66.0547 35.9193 66.5176C35.541 66.6101 34.5953 66.8878 33.9333 67.1655C33.2713 67.4432 31.9473 67.8134 31.0016 67.9986C29.1102 68.3688 27.9754 68.739 27.9754 69.0167C27.9754 69.2944 52.4691 69.2944 52.6582 69.0167C52.8474 68.739 51.5234 68.2762 49.5374 67.9986C48.5917 67.8134 47.2677 67.4432 46.6057 67.1655C45.9437 66.8878 44.998 66.6101 44.5252 66.5176C43.3903 66.3324 42.1609 65.8696 41.9718 65.5919C41.8772 65.4994 41.7826 64.7589 41.7826 64.0184V62.6299H40.9315C40.4587 62.6299 39.7967 62.5374 39.4184 62.5374L38.6618 62.3522V63.9258Z" fill="white"/>
<g clip-path="url(#clip1_1056_12864)">
<path d="M16 0H64C72.8 0 80 7.2 80 16V64C80 72.8 72.8 80 64 80H16C7.2 80 0 72.8 0 64V16C0 7.2 7.2 0 16 0Z" fill="#018992"/>
<path fill-rule="evenodd" clip-rule="evenodd" d="M10.9 52.5C7.7 52.5 5.1 55.1 5.1 58.3C5.1 61.5 7.7 64.1 10.9 64.1C14.1 64.1 16.7 61.5 16.7 58.3C16.8 55.1 14.2 52.5 10.9 52.5Z" fill="white" fill-opacity="0.1"/>
<path fill-rule="evenodd" clip-rule="evenodd" d="M5 69.6V72.8V79.2V85.7C5 88.9 7.6 91.5 10.8 91.5C14 91.5 16.6 88.9 16.6 85.7V68.9L31.2 77.3C34 78.9 37.6 77.9 39.2 75.2C40.8 72.4 39.8 68.8 37.1 67.2L22.6 58.8L37.1 50.4C39.9 48.8 40.9 45.2 39.2 42.4C37.6 39.6 34 38.6 31.2 40.3L16.7 48.7V31.8C16.7 28.6 14.1 26 10.9 26C7.6 26 5 28.6 5 31.8V48.1C5 48.8 5.5 49.3 6.2 49.3C6.4 49.3 6.5 49.3 6.7 49.2C8 48.7 9.4 48.3 10.8 48.3C12.1 48.3 13.3 48.5 14.5 49L14.6 49.1C15 49.3 15.5 49.5 15.9 49.7C16.3 49.9 16.7 50.2 17.1 50.5L17.2 50.6C18.2 51.4 19 52.4 19.7 53.5C20.3 54.6 20.8 55.8 21 57.1V57.2C21.1 57.7 21.1 58.2 21.1 58.6C21.1 59.1 21.1 59.6 21 60V60.1C20.8 61.4 20.4 62.6 19.7 63.7C19.1 64.8 18.2 65.8 17.2 66.6L17.1 66.7C16.7 67 16.3 67.3 15.9 67.5C15.5 67.7 15.1 67.9 14.6 68.1L14.5 68.2C14.2 68.3 13.9 68.5 13.6 68.6C12.7 68.9 11.7 68.9 10.8 68.9C9.4 68.9 8 68.6 6.7 68.1C6.5 68 6.3 68 6.2 68C5.5 68 5 68.5 5 69.2V69.6Z" fill="white" fill-opacity="0.1"/>
<path d="M35.7728 22.076C34.5486 22.641 33.1361 22.8294 31.7235 22.641C30.311 22.3585 28.8985 21.6993 27.4859 22.076" stroke="white" stroke-width="0.5" stroke-miterlimit="10" stroke-linecap="round" stroke-linejoin="round"/>
<path d="M29.3693 22.1702C28.8043 22.4527 28.3335 22.7352 27.7684 22.9235" stroke="white" stroke-width="0.5" stroke-miterlimit="10" stroke-linecap="round" stroke-linejoin="round"/>
<path d="M44.0956 50.5151C45.5081 50.3267 46.8265 50.1384 48.1448 49.9501C58.6918 48.4434 66.037 37.4256 63.4944 27.0669C61.3285 18.4034 54.1717 13.3182 45.3198 13.9774C43.6247 14.0716 41.9297 13.9774 40.3288 13.6949C36.9387 13.2241 33.0778 14.825 31.3827 17.7442C29.6877 20.5693 30.7235 23.771 33.737 25.0894C37.2212 26.5961 41.7413 25.4661 44.2839 22.5468C44.5664 22.2643 44.9431 21.8876 45.2256 21.8876C48.6157 21.4168 51.6291 22.076 53.8892 24.8069C54.8309 25.9369 55.6784 26.3136 56.9967 26.2194C60.3868 26.1253 62.1761 28.4795 61.046 31.6812C59.4451 36.1072 56.7142 39.7798 52.8533 42.5107C50.2166 44.3941 47.2973 45.5241 44.0014 46.1833C44.0956 47.5958 44.0956 49.0084 44.0956 50.5151ZM40.3288 54.376C40.7996 54.376 41.3647 54.2818 41.9297 54.376C42.8714 54.4702 43.1539 54.0935 43.1539 53.1518C43.1539 50.8918 43.248 48.6317 43.3422 46.3716C43.3422 45.7124 43.5306 45.4299 44.2839 45.2416C52.4766 43.4524 57.9384 38.5556 60.5752 30.6454C60.7635 30.1745 60.6693 29.5153 60.5752 29.0445C60.1043 27.5378 59.0685 26.9728 56.9026 26.9728C44.6606 26.9728 32.5128 26.9728 20.2708 26.9728C19.8941 26.9728 19.4232 26.9728 19.0466 26.9728C16.6923 27.1611 15.4681 28.8562 16.2215 31.0221C18.6699 38.0847 23.5667 42.7932 30.7235 44.8649C31.6652 45.1474 32.6069 45.3358 33.737 45.6183C33.737 47.69 33.737 49.7617 33.737 51.8334C33.737 53.7168 34.7728 54.4702 36.4679 54.2818C36.4679 50.4209 36.4679 46.56 36.4679 42.699C32.3244 42.6049 28.6518 41.4748 25.5442 39.1206C22.3425 36.7664 20.1766 33.753 18.9524 29.9862C31.8536 29.9862 44.6606 29.9862 57.6559 29.9862C54.5484 37.9906 48.804 42.134 40.2346 42.7932C40.3288 46.6541 40.3288 50.4209 40.3288 54.376ZM55.6784 70.2906C55.7726 70.1964 55.8667 70.1964 56.0551 70.1023C56.0551 69.7256 56.1492 69.3489 56.0551 68.9722C55.7725 67.3714 55.5842 65.6763 55.1134 64.1696C53.795 59.5553 50.9699 56.4477 46.1673 55.6002C43.8131 55.2235 41.3647 55.4119 38.9163 55.3177C37.5979 55.2235 36.1854 55.2235 34.867 54.941C33.5486 54.6585 33.0778 53.811 32.9836 52.4926C32.8894 50.7034 32.8894 48.9142 32.7953 47.125C32.7953 46.8425 32.6069 46.2775 32.4186 46.2775C31.7594 46.1833 30.9119 46.0891 30.3469 46.3716C29.4052 46.8425 28.5577 47.5017 27.8043 48.255C25.0734 50.9859 24.6967 54.8469 26.9568 58.0486C28.181 59.7437 29.7819 60.9679 31.6652 61.8154C35.0553 63.4163 38.5396 63.3221 42.118 62.5687C45.979 61.627 49.1807 62.7571 51.7233 65.7705C52.5708 66.8063 53.4183 67.748 54.2658 68.7839C54.6425 69.2547 55.2075 69.7256 55.6784 70.2906ZM32.0419 62.8512C31.1002 62.3804 30.3469 62.0037 29.311 61.4387C28.8402 62.4746 28.2751 63.3221 27.9926 64.3579C27.4276 66.5238 28.746 68.313 31.0061 68.313C35.9029 68.313 40.7997 68.313 45.7906 68.313C46.4498 68.313 47.2032 68.0305 47.8623 67.5597C48.9924 66.8063 49.369 64.6404 48.5215 63.9813C47.4857 63.1337 46.2615 62.7571 44.8489 63.1337C45.2256 63.8871 45.5081 64.5463 45.8848 65.2996C40.8938 65.2996 35.997 65.2996 31.0061 65.2996C31.2886 64.3579 31.6652 63.6046 32.0419 62.8512Z" fill="white"/>
<path d="M35.7145 18.4034C36.1306 18.4034 36.4679 18.0661 36.4679 17.6501C36.4679 17.234 36.1306 16.8967 35.7145 16.8967C35.2984 16.8967 34.9612 17.234 34.9612 17.6501C34.9612 18.0661 35.2984 18.4034 35.7145 18.4034Z" fill="#018992"/>
</g>
</g>
<defs>
<clipPath id="clip0_1056_12864">
<rect width="80" height="91.5" fill="white"/>
</clipPath>
<clipPath id="clip1_1056_12864">
<rect width="80" height="91.5" fill="white"/>
</clipPath>
</defs>
</svg>
