<svg  viewBox="0 0 45 64" fill="none" xmlns="http://www.w3.org/2000/svg">
<path d="M22.382 63.992L26.491 58.617C30.78 52.939 44.773 33.593 44.773 23.016C44.774 9.249 35.778 0 22.387 0C8.996 0 0 9.249 0 23.017C0 34.407 16.432 56.183 18.301 58.622L22.382 63.992ZM8.249 23.158C8.249 15.387 14.591 9.064 22.387 9.064C30.183 9.064 36.525 15.387 36.525 23.158C36.525 30.929 30.183 37.252 22.387 37.252C14.591 37.252 8.249 30.93 8.249 23.158Z" fill="#018992"/>
<path d="M39 22.5C39 13.4016 31.5979 6 22.5 6C13.4021 6 6 13.4016 6 22.5C6 31.5984 13.4021 39 22.5 39C31.5979 39 39 31.5984 39 22.5Z" fill="white"/>
<g clip-path="url(#clip0_3627_5581)">
<path fill-rule="evenodd" clip-rule="evenodd" d="M17.1533 9.3084C16.8721 9.47732 16.5012 9.84306 16.3284 10.122C16.0393 10.5885 16.0173 10.9077 16.0157 14.3714C16.0157 17.2136 16.0629 18.1326 16.2105 18.1807C16.3174 18.2163 16.7181 18.1512 17.0999 18.0381C19.7993 17.2369 22.4611 19.2081 22.4563 22.0085C22.4532 23.7814 21.4994 25.1948 19.8072 25.9325C19.1048 26.2393 18.0804 26.2455 16.5185 25.951L16 25.8534L16.0471 29.8207L16.0943 33.7897L16.6725 34.36C17.1659 34.845 17.3733 34.9396 18.0866 34.9907C19.0703 35.062 19.76 34.7195 20.2597 33.9121C20.5488 33.4456 20.5724 33.1264 20.5724 29.7138C20.5724 27.6821 20.6321 26.0441 20.7028 26.0719C20.7735 26.0998 22.2238 26.9135 23.9223 27.8805C26.5778 29.3899 27.1089 29.6364 27.7028 29.6364C29.0651 29.6364 30 28.7298 30 27.4063C30 26.2006 29.6245 25.8534 26.2243 23.9132C24.5414 22.9539 23.1477 22.1155 23.1257 22.0504C23.1037 21.9853 24.3057 21.2445 25.7969 20.4014C28.9755 18.6053 29.4501 18.2798 29.7659 17.677C30.3001 16.6588 29.8821 15.2362 28.8891 14.6969C28.4994 14.4845 28.1349 14.421 27.5661 14.4675C26.9093 14.5202 26.2855 14.8146 23.7652 16.259C22.1075 17.209 20.7107 17.9869 20.662 17.9869C20.6132 17.9869 20.574 16.3302 20.574 14.3063C20.574 10.9062 20.5504 10.5869 20.2613 10.1205C19.8402 9.44323 19.0624 9 18.2941 9C17.9437 9 17.4393 9.13638 17.1533 9.3084Z" fill="#008C91"/>
<path fill-rule="evenodd" clip-rule="evenodd" d="M17.0856 20.0028C16.113 20.6335 15.7956 21.9167 16.3565 22.9519C17.183 24.4753 19.521 24.4552 20.3208 22.9163C20.8425 21.9152 20.6068 20.8768 19.686 20.1128C19.0434 19.5797 17.8146 19.527 17.084 20.0013L17.0856 20.0028Z" fill="#DE5738"/>
</g>
<defs>
<clipPath id="clip0_3627_5581">
<rect width="14" height="26" fill="white" transform="translate(16 9)"/>
</clipPath>
</defs>
</svg>
