<svg width="100" height="93" viewBox="0 0 100 93" fill="none" xmlns="http://www.w3.org/2000/svg">
<path d="M23.6123 42.0665C22.0936 39.6478 19.2453 36.3638 19.2453 33.5304C19.2453 31.93 20.5066 29.8431 22.3137 29.3784C22.1701 26.9831 22.076 24.5495 22.076 22.1425C22.076 20.7173 22.1029 19.2788 22.1566 17.8671C22.2359 16.9738 22.3969 16.0896 22.6377 15.2257C23.7492 11.6039 26.1715 8.52691 29.4311 6.59619C30.585 5.86904 31.8359 5.30166 33.1189 4.83408C35.4516 3.9833 34.3211 0.0547858 36.8807 0.0032233C42.8609 -0.151855 52.692 5.321 56.527 9.47295C58.968 12.1722 60.3621 15.6653 60.4432 19.3048L60.2 29.7774C61.2637 30.037 62.4516 30.8673 62.7148 31.9306C63.5324 35.2358 60.1029 39.3497 58.5088 41.9784C57.0371 44.4054 51.418 52.255 51.4127 52.3097C51.3859 52.5929 51.5311 52.9538 51.9174 53.5319C53.5328 55.7523 55.5799 57.3022 57.8428 58.5052C58.8485 56.7298 60.0895 55.0986 61.5322 53.6558C65.6102 49.578 71.2439 47.0554 77.4658 47.0554C83.6877 47.0554 89.3221 49.578 93.3998 53.6558C97.4775 57.7335 100 63.3675 100 69.5894C100 75.8112 97.4775 81.4454 93.3998 85.5231C89.3221 89.6011 83.6877 92.1235 77.4658 92.1235C71.2439 92.1235 65.6102 89.6011 61.5322 85.5231C60.4032 84.3942 59.3967 83.149 58.5297 81.8083H0C0 57.9427 21.3107 65.5243 30.0281 53.5323C30.4586 52.8989 30.6555 52.5577 30.6506 52.2796C30.648 52.1308 24.1908 42.9874 23.6123 42.0665ZM73.315 60.2511L73.3121 59.7083C73.3299 58.5622 73.5508 57.8095 75.1619 57.8345L79.2889 57.8856C80.1467 57.8823 80.7178 58.0501 81.1094 58.4679C81.4969 58.8812 81.6285 59.4554 81.6195 60.2741L81.6223 65.3122C83.4113 65.3122 85.2012 65.3192 86.9902 65.3114C88.117 65.3271 88.8574 65.5476 88.8332 67.2028L88.7836 71.4755C88.7877 72.3487 88.6281 72.9298 88.2301 73.3304C87.8242 73.7388 87.2596 73.8774 86.4551 73.8685L81.6223 73.8712L81.6199 78.9614C81.6223 79.7507 81.4879 80.3081 81.1094 80.711L81.0615 80.7569C80.6699 81.1421 80.1109 81.297 79.2889 81.2933L75.1619 81.3446C73.5522 81.3696 73.3303 80.6181 73.3121 79.4731C73.3195 77.606 73.3143 75.7386 73.3129 73.8712L68.4201 73.8689C67.6455 73.8704 67.0984 73.7294 66.7016 73.3304C66.3035 72.9298 66.1443 72.3483 66.148 71.4759L66.0984 67.2028C66.0742 65.5476 66.8152 65.3274 67.9412 65.311C69.7316 65.3189 71.5223 65.3134 73.3129 65.3122L73.315 60.2511ZM60.9383 59.9194L60.9391 59.9198C59.1627 62.945 58.3205 66.2304 58.3205 69.6841C58.3549 80.078 66.8049 88.7354 77.4658 88.7354C88.0402 88.7354 96.6119 80.1636 96.6119 69.5894C96.6119 59.0153 88.0402 50.4435 77.4658 50.4435C70.6961 50.4435 64.7469 53.9567 61.3428 59.2597C61.2035 59.4768 61.0686 59.6968 60.9383 59.9194Z" />
</svg>
