<svg width="40" height="36" viewBox="0 0 40 36" fill="none" xmlns="http://www.w3.org/2000/svg">
<path fill-rule="evenodd" clip-rule="evenodd" d="M2.55404 0.0400473C1.38596 0.192431 0.462546 0.990967 0.0957049 2.16582L0 2.47231V17.817V33.1616L0.0957049 33.4681C0.416901 34.4968 1.12128 35.2013 2.14605 35.5188L2.45188 35.6135L18.2665 35.6256C29.1696 35.6339 34.1984 35.6243 34.4589 35.5946C35.6265 35.4614 36.5695 34.6959 36.9529 33.5703L37.0642 33.2434L37.0751 28.0025L37.0861 22.7616H35.1462H33.2062L33.1918 25.9592C33.1758 29.5126 33.1861 29.3738 32.8937 29.9818C32.5313 30.7352 31.8672 31.2975 31.036 31.5548L30.7302 31.6495L18.7569 31.6614C10.7431 31.6693 6.67797 31.6594 6.46429 31.6313C5.77356 31.5407 5.28383 31.2931 4.75435 30.7669C4.45747 30.4718 4.37076 30.3537 4.21437 30.0313C3.87445 29.3306 3.90384 30.5512 3.90318 17.1168C3.90261 6.02381 3.90772 5.10154 3.97073 4.90641C4.10554 4.48902 4.47774 4.19287 5.04143 4.0545C5.2849 3.99476 5.98368 3.98663 11.9222 3.97465L18.5321 3.96129V1.98063V0L10.6554 0.00535326C6.32331 0.00829551 2.67765 0.0239058 2.55404 0.0400473ZM27.4714 3.90469L27.461 7.78471L26.3372 7.80992C23.304 7.878 20.6106 8.38914 18.1439 9.36482C13.4211 11.2328 9.96778 14.8952 8.28346 19.8224C7.92062 20.8839 7.59068 22.2562 7.48354 23.1498L7.45902 23.3541L7.65251 23.1298C10.2628 20.1037 13.5763 17.9091 17.3879 16.6818C19.393 16.0362 21.4624 15.6747 23.7765 15.5658C24.9704 15.5096 26.8229 15.5854 27.3893 15.7135L27.481 15.7343L27.4915 19.5703L27.5019 23.4062L31.4249 19.7475C33.5825 17.7352 36.4022 15.1055 37.6909 13.9038C38.9796 12.7021 40.0185 11.7053 39.9997 11.6887C39.9404 11.6364 27.7953 0.322422 27.6349 0.170038L27.4819 0.0246822L27.4714 3.90469Z" />
</svg>
