<svg width="30" height="21" viewbox="0 0 30 21" fill="none" xmlns="http://www.w3.org/2000/svg">
<g clip-path="url(#clip0_1860_18177)">
<path d="M29.5545 7.27723L25.9901 6.4604V0.519802C25.9901 0.222772 25.7673 0 25.4703 0H0.519802C0.222772 0 0 0.222772 0 0.519802V13.8861C0 14.1832 0.222772 14.4059 0.519802 14.4059H2.67327V14.4802C2.67327 14.6287 2.67327 14.7772 2.74752 14.8515C2.82178 15 2.9703 15.0743 3.04455 15.0743L3.34158 15.1485L26.5842 20.495H26.6584C26.8812 20.495 27.104 20.3465 27.1782 20.1238L29.4802 10.0248L30 7.87129C30 7.72277 30 7.57426 29.9257 7.5C29.8515 7.42574 29.703 7.27723 29.5545 7.27723ZM16.4109 15.0743C17.1535 15.0743 17.8218 14.8515 18.4901 14.4802C18.5644 14.4802 18.5644 14.4059 18.5644 14.4059H25.1733L24.9505 15.5198C24.8762 15.5198 24.802 15.5198 24.7277 15.5198C23.6881 15.5198 22.7228 16.0396 22.2772 16.9307C22.203 17.0792 22.1287 17.2277 22.1287 17.302L9.50495 14.4059H14.3317C14.4059 14.4802 14.5545 14.5545 14.6287 14.5545C14.703 14.6287 14.7772 14.6287 14.8515 14.703C15.0743 14.8515 15.3713 14.9257 15.5941 15C15.8911 15.0743 16.1881 15.0743 16.4109 15.0743ZM15.8168 14.4059H17.0792C16.6337 14.4802 16.2624 14.4802 15.8168 14.4059ZM1.0396 13.3663V1.0396H24.9505V13.3663H1.0396ZM26.2871 19.3812L4.75248 14.4059H8.0198C8.0198 14.4802 8.09406 14.5545 8.16832 14.6287L22.1287 17.8218C22.1287 17.8218 22.1287 17.8218 22.203 17.8218C22.2772 17.8218 22.4257 17.7475 22.4257 17.6733C22.7228 16.6337 23.6139 15.9653 24.6535 15.9653C24.802 15.9653 24.9505 15.9653 25.099 15.9653C25.2475 15.9653 25.3218 15.8911 25.396 15.8168L25.7673 14.3317L25.8416 14.2574C25.9158 14.1832 25.9901 14.0347 25.9901 13.8861V13.2178L26.5099 10.9158C26.5099 10.7673 26.4356 10.6931 26.3614 10.6188C26.2129 10.6188 26.1386 10.5446 25.9901 10.4703V7.42574L28.8861 8.09406L26.2871 19.3812Z" fill="#018992"/>
<path d="M22.9455 4.30702C21.6831 4.23276 20.7178 3.19316 20.6435 1.93078C20.6435 1.78227 20.495 1.70801 20.4208 1.70801H5.56928C5.42076 1.70801 5.34651 1.78227 5.34651 1.93078C5.19799 3.19316 4.23265 4.23276 2.97027 4.30702C2.82175 4.30702 2.7475 4.45553 2.7475 4.52979V9.87632C2.7475 10.0248 2.82175 10.0991 2.97027 10.0991C4.23265 10.1734 5.19799 11.213 5.27225 12.4753C5.27225 12.6238 5.42076 12.6981 5.49502 12.6981H20.3465C20.495 12.6981 20.5693 12.6238 20.5693 12.4753C20.6435 11.213 21.6089 10.1734 22.8713 10.0991C23.0198 10.0991 23.094 9.95058 23.094 9.87632V4.52979C23.1683 4.38127 23.094 4.30702 22.9455 4.30702ZM22.7227 9.65355C21.3861 9.80207 20.4208 10.9159 20.198 12.2526H5.79205C5.64354 10.9159 4.60393 9.87632 3.2673 9.65355V4.75256C4.60393 4.60405 5.56928 3.49019 5.79205 2.15355H20.198C20.3465 3.49019 21.3861 4.52979 22.7227 4.75256V9.65355Z" fill="#018992"/>
<path d="M13.1436 3.04443C10.9158 3.04443 9.13367 4.90087 9.13367 7.20285C9.13367 9.50483 10.9158 11.3613 13.1436 11.3613C15.3713 11.3613 17.1535 9.50483 17.1535 7.20285C17.1535 4.90087 15.297 3.04443 13.1436 3.04443ZM13.1436 10.6929C11.2871 10.6929 9.80198 9.13354 9.80198 7.20285C9.80198 5.27216 11.2871 3.71275 13.1436 3.71275C15 3.71275 16.4852 5.27216 16.4852 7.20285C16.4852 9.13354 15 10.6929 13.1436 10.6929Z" fill="#018992"/>
</g>
<defs>
<clipPath id="clip0_1860_18177">
<rect width="30" height="20.495" fill="white"/>
</clipPath>
</defs>
</svg>
