<svg width="207" height="256" viewBox="0 0 207 256" fill="none" xmlns="http://www.w3.org/2000/svg">
<path fill-rule="evenodd" clip-rule="evenodd" d="M17.975 0H124.655V73.3486C124.655 76.1035 126.89 78.3385 129.645 78.3385H207V238.03C207 242.945 204.98 247.435 201.725 250.7L201.685 250.74C198.42 253.985 193.94 256 189.03 256H17.975C13.025 256 8.53 253.98 5.275 250.725C2.02 247.47 0 242.975 0 238.03V17.9696C0 13.0247 2.02 8.52983 5.275 5.2749C8.53 2.01996 13.025 0 17.975 0ZM134.64 1.11498C135.099 1.42309 135.517 1.7876 135.885 2.19996L204.16 68.3537H134.64V1.11498ZM45.655 209.861C42.895 209.861 40.66 207.626 40.66 204.871C40.66 202.116 42.895 199.876 45.655 199.876H161.345C164.105 199.876 166.34 202.116 166.34 204.871C166.34 207.626 164.105 209.861 161.345 209.861H45.655ZM45.655 171.687C42.895 171.687 40.66 169.452 40.66 166.697C40.66 163.937 42.895 161.702 45.655 161.702H159.545C162.305 161.702 164.54 163.937 164.54 166.697C164.54 169.452 162.305 171.687 159.545 171.687H45.655ZM45.655 133.512C42.895 133.512 40.66 131.277 40.66 128.517C40.66 125.763 42.895 123.528 45.655 123.528H137.81C140.565 123.528 142.805 125.763 142.805 128.517C142.805 131.277 140.565 133.512 137.81 133.512H45.655ZM45.655 95.3331C42.895 95.3331 40.66 93.0982 40.66 90.3432C40.66 87.5833 42.895 85.3483 45.655 85.3483H97.105C99.865 85.3483 102.1 87.5833 102.1 90.3432C102.1 93.0982 99.865 95.3331 97.105 95.3331H45.655ZM45.655 57.1589C42.895 57.1589 40.66 54.9239 40.66 52.164C40.66 49.409 42.895 47.1741 45.655 47.1741H73.36C76.12 47.1741 78.355 49.409 78.355 52.164C78.355 54.9239 76.12 57.1589 73.36 57.1589H45.655Z" />
</svg>
