<svg width="150" height="134" viewBox="0 0 150 134" fill="none" xmlns="http://www.w3.org/2000/svg">
<path d="M58.334 6.25007V20.8336H43.7505C40.2869 20.8336 37.5004 23.6201 37.5004 27.0836V39.5838C37.5004 43.0473 40.2869 45.8338 43.7505 45.8338H58.334V60.4173C58.334 63.8809 61.1205 66.6674 64.584 66.6674H77.0842C80.5478 66.6674 83.3342 63.8809 83.3342 60.4173V45.8338H97.9177C101.381 45.8338 104.168 43.0473 104.168 39.5838V27.0836C104.168 23.6201 101.381 20.8336 97.9177 20.8336H83.3342V6.25007C83.3342 2.78649 80.5478 0 77.0842 0H64.584C61.1205 0 58.334 2.78649 58.334 6.25007ZM145.757 102.137C150.392 98.725 151.382 92.2145 147.97 87.5791C144.559 82.9436 138.048 81.954 133.413 85.3655L102.241 108.335H70.8341C68.5424 108.335 66.6674 106.459 66.6674 104.168C66.6674 101.876 68.5424 100.001 70.8341 100.001H75.0008H91.6677C96.2771 100.001 100.001 96.2771 100.001 91.6677C100.001 87.0582 96.2771 83.3342 91.6677 83.3342H75.0008H70.8341H50.4433C42.8651 83.3342 35.5212 85.9124 29.6097 90.626L17.9169 100.001H8.33342C3.724 100.001 0 103.725 0 108.335V125.001C0 129.611 3.724 133.335 8.33342 133.335H50.0005H91.7979C99.35 133.335 106.72 130.913 112.814 126.434L145.783 102.137H145.757ZM50.1828 100.001H50.4172C50.3391 100.001 50.261 100.001 50.1828 100.001Z" />
</svg>
