<svg width="28" height="25" viewbox="0 0 28 25" fill="none" xmlns="http://www.w3.org/2000/svg">
<g clip-path="url(#clip0_1857_18174)">
<path fill-rule="evenodd" clip-rule="evenodd" d="M13.7 1.4C15.8 1.4 17.8 2 19.5 3.1C19.7 2.3 20.1 1.7 20.6 1.2C21.3 0.4 22.4 0 23.4 0C24.5 0 25.5 0.4 26.2 1.1C26.9 1.9 27.4 2.9 27.4 4C27.4 5 27 6 26.2 6.8C25.6 7.3 24.8 7.7 24 7.8C24.7 9.3 25.1 11 25.1 12.8C25.1 15.9 23.8 18.8 21.8 20.9C21.5 21.2 21.2 21.5 20.9 21.7L22.6 23.8C22.8 24 22.7 24.3 22.5 24.4C22.3 24.6 22 24.6 21.9 24.4L20.2 22.3C18.4 23.6 16.2 24.3 13.8 24.3C11.6 24.3 9.7 23.7 8 22.7L6.4 24.7C6.2 24.9 5.9 24.9 5.7 24.8C5.5 24.6 5.4 24.3 5.6 24.1L7.1 22.2C6.6 21.8 6 21.4 5.6 20.9C3.6 18.9 2.3 16 2.3 12.8C2.3 11 2.7 9.3 3.4 7.8C2.5 7.7 1.7 7.3 1.2 6.8C0.4 6 0 5 0 4C0 2.9 0.4 1.9 1.2 1.2C1.9 0.4 2.9 0 4 0C5 0 6 0.4 6.7 1.1C7.3 1.6 7.7 2.3 7.9 3C9.6 2 11.5 1.3 13.7 1.4ZM20.9 4C21.2 4.2 21.5 4.5 21.8 4.8C21.8 4.9 21.9 4.9 21.9 5C22 5 22 5 22.1 5.1C22.2 5.2 22.3 5.3 22.4 5.4C22.8 5.9 23.2 6.4 23.5 6.9C24.4 6.9 25 6.5 25.6 6C26.1 5.4 26.5 4.6 26.5 3.9C26.5 3.1 26.2 2.3 25.6 1.7C25 1.2 24.2 0.8 23.4 0.8C22.6 0.8 21.9 1 21.3 1.7C20.9 2.1 20.5 2.8 20.4 3.5C20.6 3.7 20.8 3.8 20.9 4ZM3.9 6.9C4.2 6.4 4.6 5.9 5 5.4C5.1 5.3 5.2 5.2 5.2 5.1L5.4 4.9L5.5 4.8L5.6 4.7C6 4.3 6.4 3.9 6.8 3.7C6.9 3.6 7 3.6 7 3.5C6.9 2.9 6.6 2.2 6.1 1.8C5.5 1.2 4.8 0.9 4 0.9C3.2 0.9 2.4 1.2 1.8 1.8C1.2 2.4 0.9 3.1 0.9 4C0.9 4.8 1.2 5.5 1.7 6.1C2.4 6.6 3 6.9 3.9 6.9ZM22.4 7C22.1 6.6 21.7 6.2 21.4 5.8C21.1 5.4 20.7 5 20.3 4.7C20.2 4.6 20.1 4.5 20 4.5C19.9 4.4 19.8 4.4 19.7 4.3L19.6 4.2C18 3.1 15.9 2.4 13.8 2.4C11.6 2.4 9.6 3.1 7.9 4.2C7.9 4.2 7.8 4.3 7.7 4.3C7.6 4.2 7.5 4.3 7.4 4.4C7.3 4.4 7.1 4.5 7 4.6C6.6 5 6.3 5.4 5.9 5.8C5.6 6.1 5.3 6.5 5.1 6.8C3.9 8.5 3.2 10.6 3.2 12.8C3.2 15.7 4.4 18.3 6.2 20.2C8.1 22.1 10.7 23.3 13.7 23.3C16.6 23.3 19.2 22.1 21.1 20.2C23 18.3 24.1 15.6 24.1 12.8C24.1 10.7 23.5 8.7 22.4 7ZM13.2 8.9C13.2 8.7 13.4 8.5 13.7 8.5C13.9 8.5 14.1 8.7 14.1 8.9V13.2C14.1 13.4 13.9 13.7 13.7 13.7H9.6C9.3 13.7 9.2 13.4 9.2 13.2C9.2 13 9.4 12.8 9.6 12.8H13.2V8.9ZM13.7 4.6C15.9 4.6 17.9 5.5 19.4 7C20.8 8.4 21.8 10.5 21.8 12.8C21.8 15.1 20.9 17.1 19.4 18.6C17.9 20 15.8 21 13.7 21C11.4 21 9.4 20.1 7.9 18.6C6.4 17 5.5 15 5.5 12.8C5.5 10.6 6.4 8.5 8 7C9.4 5.6 11.4 4.6 13.7 4.6ZM18.8 7.7C17.5 6.3 15.7 5.6 13.7 5.6C11.7 5.6 9.9 6.4 8.5 7.7C7.2 9 6.4 10.7 6.4 12.8C6.4 14.7 7.3 16.6 8.5 17.9C9.9 19.3 11.6 20 13.7 20C15.6 20 17.5 19.2 18.8 17.9C20.1 16.6 20.9 14.8 20.9 12.8C20.9 10.7 20.1 9 18.8 7.7Z" fill="#DE5738"/>
</g>
<defs>
<clipPath id="clip0_1857_18174">
<rect width="27.4" height="24.8" fill="white"/>
</clipPath>
</defs>
</svg>
