<svg width="29" height="26" viewbox="0 0 29 26" fill="none" xmlns="http://www.w3.org/2000/svg">
<g clip-path="url(#clip0_1852_17827)">
<path d="M2.04026 13.1335C3.48569 15.7986 5.54266 18.134 7.82201 20.2221C8.46134 20.7991 9.40643 21.5959 10.4071 22.3926C10.4071 22.3926 10.4071 22.3926 10.3793 22.3926C12.4085 24.0412 14.6322 25.7171 14.6322 25.7171C14.66 25.7171 14.66 25.7446 14.66 25.7446C14.6878 25.7446 19.7469 22.2003 21.7483 20.4968C24.111 18.4912 26.2791 16.2382 27.808 13.628C30.6711 8.81988 27.947 1.48399 21.4703 0.824588C19.0242 0.577311 15.9109 1.84117 15.1326 3.92929C14.4377 1.8137 10.7129 0.439935 8.23896 0.577311C1.76229 0.98944 -0.600449 8.21542 2.04026 13.1335ZM8.98948 11.9521C8.98948 11.7872 9.12846 11.6773 9.26745 11.6773C9.73999 11.6773 10.2125 11.6773 10.6851 11.6773C11.6302 11.6773 12.5475 11.6773 13.4926 11.6773C13.4926 11.5674 13.4926 11.43 13.4926 11.3201C13.4926 10.0563 13.4926 8.7924 13.4926 7.52854C13.4926 7.36369 13.6316 7.25379 13.7705 7.25379C14.5767 7.25379 15.355 7.25379 16.1611 7.25379C16.3279 7.25379 16.439 7.39117 16.439 7.52854C16.439 7.99562 16.439 8.4627 16.439 8.92978C16.439 9.86394 16.439 10.7706 16.439 11.7048C16.5502 11.7048 16.6892 11.7048 16.8004 11.7048C18.0791 11.7048 19.3577 11.7048 20.6364 11.7048C20.8032 11.7048 20.9143 11.8422 20.9143 11.9795C20.9143 12.7763 20.9143 13.5456 20.9143 14.3424C20.9143 14.5072 20.7754 14.6171 20.6364 14.6171C20.1638 14.6171 19.6913 14.6171 19.2187 14.6171C18.2736 14.6171 17.3563 14.6171 16.4112 14.6171C16.4112 14.7271 16.4112 14.8644 16.4112 14.9743C16.4112 16.2382 16.4112 17.502 16.4112 18.7659C16.4112 18.8483 16.3835 18.9308 16.3279 18.9582C16.2723 19.0132 16.2167 19.0407 16.1333 19.0407C15.3272 19.0407 14.5489 19.0407 13.7427 19.0407C13.576 19.0407 13.4648 18.9033 13.4648 18.7659C13.4648 18.2988 13.4648 17.8318 13.4648 17.3647C13.4648 16.4305 13.4648 15.5238 13.4648 14.5897C13.3536 14.5897 13.2146 14.5897 13.1034 14.5897C11.8248 14.5897 10.5461 14.5897 9.26745 14.5897C9.18406 14.5897 9.10067 14.5622 9.07287 14.5072C9.01728 14.4523 8.98948 14.3973 8.98948 14.3149C8.98948 13.5456 8.98948 12.7488 8.98948 11.9521Z" fill="white"/>
</g>
<defs>
<clipPath id="clip0_1852_17827">
<rect width="27.9637" height="25.1673" fill="white" transform="translate(0.984009 0.577148)"/>
</clipPath>
</defs>
</svg>
