<svg width="80" height="76" viewbox="0 0 80 76" fill="none" xmlns="http://www.w3.org/2000/svg">
<path d="M24.1906 35.807C22.8887 33.7108 20.4149 30.866 20.4149 28.4183C20.4424 27.621 20.7109 26.8508 21.1851 26.2093C21.6593 25.5677 22.3168 25.085 23.0709 24.8248C22.9473 22.7482 22.8626 20.6455 22.8626 18.5624C22.8626 17.3255 22.8626 16.0821 22.9342 14.8582C23.001 14.2258 23.1408 13.6032 23.3509 13.0029C24.3059 9.8696 26.3949 7.20495 29.2097 5.52962C30.2216 4.89912 31.2974 4.37759 32.4191 3.97376C34.4372 3.23815 33.4607 0.0678455 35.674 0.00274689C40.8819 -0.12745 49.3447 4.3969 52.6778 7.99035C54.7815 10.1626 55.992 13.0461 56.0694 16.0691L55.8611 25.1373C56.3508 25.2398 56.8068 25.4641 57.1869 25.7895C57.5669 26.115 57.8588 26.531 58.0354 26.9991C58.7385 29.857 55.7765 33.4179 54.3964 35.6963C53.0944 37.7925 48.2576 43.5081 48.2511 43.5732C48.2821 43.9619 48.4347 44.3309 48.6872 44.6278C49.1624 45.2745 49.701 45.8721 50.2952 46.4115C47.4772 49.3946 45.6462 53.1731 45.051 57.2333C44.4559 61.2935 45.1254 65.4386 46.9686 69.1049H0C0 48.4491 22.1986 55.0111 29.7435 44.6278C30.1146 44.081 30.2904 43.7881 30.2839 43.5472C30.2839 43.417 24.6919 36.5686 24.1906 35.7744V35.807Z" />
<path fill-rule="evenodd" clip-rule="evenodd" d="M64.8125 44.9204C67.8158 44.9204 70.7516 45.8108 73.2489 47.4791C75.7462 49.1473 77.6928 51.5185 78.8427 54.2929C79.9926 57.0673 80.2941 60.1203 79.7091 63.0661C79.1242 66.0118 77.679 68.718 75.5563 70.8425C73.4336 72.967 70.7286 74.4145 67.7834 75.002C64.8382 75.5895 61.7849 75.2906 59.0095 74.1431C56.2341 72.9956 53.8613 71.051 52.1909 68.5551C50.5205 66.0592 49.6276 63.1242 49.625 60.1209C49.6224 58.1251 50.0134 56.1484 50.7756 54.3039C51.5378 52.4594 52.6562 50.7833 54.0668 49.3714C55.4774 47.9596 57.1526 46.8397 58.9965 46.076C60.8404 45.3122 62.8167 44.9196 64.8125 44.9204ZM58.231 57.3608L57.9381 57.0678C57.4889 56.6056 57.2871 56.2215 57.9381 55.5836L60.0994 53.4744C60.2226 53.3173 60.3758 53.1863 60.5502 53.0891C60.7245 52.9918 60.9165 52.9303 61.1149 52.908C61.5015 52.9585 61.8525 53.1597 62.0914 53.4679L64.8711 56.2476L67.9177 53.1944C68.3799 52.7453 68.7705 52.5435 69.4085 53.1944L71.5177 55.3362C71.6761 55.4576 71.8076 55.6106 71.9039 55.7853C72.0003 55.9601 72.0594 56.153 72.0775 56.3517C72.0532 56.5434 71.9912 56.7283 71.8951 56.8959C71.799 57.0635 71.6708 57.2104 71.5177 57.3282L68.7445 60.1014L71.5177 62.8746C71.8258 63.1135 72.027 63.4645 72.0775 63.8511C72.0594 64.0498 72.0003 64.2427 71.9039 64.4175C71.8076 64.5922 71.6761 64.7452 71.5177 64.8666L69.4085 67.0539C68.7575 67.7049 68.3799 67.5031 67.9177 67.0539L64.8711 63.9943L62.0914 66.774C61.8525 67.0821 61.5015 67.2834 61.1149 67.3339C60.9165 67.3116 60.7245 67.25 60.5502 67.1528C60.3758 67.0556 60.2226 66.9246 60.0994 66.7675L57.9381 64.6583C57.2871 64.0073 57.4889 63.6363 57.9381 63.1741L60.9977 60.1209L58.231 57.3608Z" />
</svg>
