<svg width="76" height="68" viewbox="0 0 76 68" fill="none" xmlns="http://www.w3.org/2000/svg">
<path d="M65.7807 8.14282H64.7493C64.0881 8.14282 63.4333 8.27306 62.8225 8.52609C62.2116 8.77912 61.6565 9.15 61.189 9.61754C60.7215 10.0851 60.3506 10.6401 60.0975 11.251C59.8445 11.8619 59.7143 12.5166 59.7143 13.1778V13.5714C59.7143 16.4509 58.5704 19.2124 56.5343 21.2486C54.4982 23.2847 51.7366 24.4285 48.8571 24.4285H27.1429C24.2634 24.4285 21.5018 23.2847 19.4657 21.2486C17.4296 19.2124 16.2857 16.4509 16.2857 13.5714V13.1643C16.2821 11.8312 15.7501 10.5541 14.8062 9.61274C13.8624 8.67143 12.5837 8.14282 11.2507 8.14282H10.2193C7.50896 8.14282 4.90965 9.21949 2.99316 11.136C1.07667 13.0525 0 15.6518 0 18.3621V57.6378C0 60.3481 1.07667 62.9475 2.99316 64.864C4.90965 66.7804 7.50896 67.8571 10.2193 67.8571H65.7807C67.1227 67.8571 68.4516 67.5928 69.6915 67.0792C70.9313 66.5656 72.0579 65.8129 73.0068 64.864C73.9558 63.915 74.7085 62.7884 75.2221 61.5486C75.7357 60.3087 76 58.9798 76 57.6378V18.3621C76 17.0201 75.7357 15.6912 75.2221 14.4514C74.7085 13.2115 73.9558 12.0849 73.0068 11.136C72.0579 10.187 70.9313 9.43429 69.6915 8.92072C68.4516 8.40715 67.1227 8.14282 65.7807 8.14282ZM29.07 53.7157H14.44C13.9692 53.7217 13.5036 53.6163 13.0813 53.4081C12.659 53.1999 12.2919 52.8948 12.01 52.5176C11.7282 52.1405 11.5395 51.702 11.4594 51.238C11.3793 50.774 11.4101 50.2976 11.5493 49.8478C12.0726 48.1933 12.9725 46.6827 14.1781 45.4347C15.3838 44.1866 16.8624 43.2351 18.4979 42.655C18.6341 42.6081 18.7539 42.5229 18.8427 42.4095C18.9316 42.2961 18.9858 42.1595 18.9987 42.016C19.0116 41.8725 18.9827 41.7283 18.9155 41.6009C18.8483 41.4735 18.7457 41.3682 18.62 41.2978C17.4515 40.6202 16.5394 39.5758 16.0251 38.3267C15.5109 37.0776 15.4233 35.6938 15.776 34.3898C16.1286 33.0859 16.9018 31.9348 17.9756 31.1152C19.0493 30.2957 20.3635 29.8534 21.7143 29.8571C22.5691 29.8764 23.411 30.0703 24.1881 30.427C24.9653 30.7837 25.6612 31.2955 26.2333 31.9311C26.8053 32.5667 27.2412 33.3125 27.5144 34.1228C27.7875 34.9331 27.892 35.7907 27.8214 36.6428C27.7185 37.5951 27.3934 38.5099 26.8725 39.3137C26.3516 40.1175 25.6493 40.7878 24.8221 41.2707C24.6965 41.3411 24.5938 41.4463 24.5266 41.5738C24.4594 41.7012 24.4306 41.8454 24.4435 41.9888C24.4564 42.1323 24.5105 42.269 24.5994 42.3824C24.6883 42.4958 24.808 42.581 24.9443 42.6278C26.5918 43.2013 28.0827 44.1514 29.2984 45.4024C30.5141 46.6535 31.4211 48.171 31.9471 49.8343C32.0855 50.2837 32.1161 50.7594 32.0367 51.2229C31.9573 51.6864 31.7701 52.1247 31.49 52.5025C31.21 52.8803 30.8451 53.1869 30.4247 53.3976C30.0043 53.6084 29.5402 53.7173 29.07 53.7157ZM51.5714 53.7157H40.7143C39.9944 53.7157 39.304 53.4297 38.795 52.9207C38.286 52.4117 38 51.7213 38 51.0014C38 50.2815 38.286 49.5911 38.795 49.0821C39.304 48.5731 39.9944 48.2871 40.7143 48.2871H51.5714C52.2913 48.2871 52.9817 48.5731 53.4907 49.0821C53.9997 49.5911 54.2857 50.2815 54.2857 51.0014C54.2857 51.7213 53.9997 52.4117 53.4907 52.9207C52.9817 53.4297 52.2913 53.7157 51.5714 53.7157ZM62.4286 53.7157C61.8917 53.7157 61.367 53.5565 60.9206 53.2582C60.4742 52.96 60.1263 52.5361 59.9209 52.0401C59.7155 51.5441 59.6617 50.9984 59.7664 50.4719C59.8712 49.9453 60.1297 49.4617 60.5093 49.0821C60.8889 48.7025 61.3725 48.444 61.899 48.3393C62.4256 48.2345 62.9713 48.2883 63.4673 48.4937C63.9632 48.6992 64.3872 49.0471 64.6854 49.4934C64.9837 49.9398 65.1429 50.4646 65.1429 51.0014C65.1429 51.7213 64.8569 52.4117 64.3479 52.9207C63.8388 53.4297 63.1484 53.7157 62.4286 53.7157ZM62.4286 40.7143H40.7143C39.9944 40.7143 39.304 40.4283 38.795 39.9193C38.286 39.4102 38 38.7198 38 38C38 37.2801 38.286 36.5897 38.795 36.0807C39.304 35.5716 39.9944 35.2857 40.7143 35.2857H62.4286C63.1484 35.2857 63.8388 35.5716 64.3479 36.0807C64.8569 36.5897 65.1429 37.2801 65.1429 38C65.1429 38.7198 64.8569 39.4102 64.3479 39.9193C63.8388 40.4283 63.1484 40.7143 62.4286 40.7143Z" />
<path d="M46.7677 0H29.2334C25.081 0 21.7148 3.36618 21.7148 7.51857V11.4814C21.7148 15.6338 25.081 19 29.2334 19H46.7677C50.9201 19 54.2863 15.6338 54.2863 11.4814V7.51857C54.2863 3.36618 50.9201 0 46.7677 0Z" />
</svg>
