<svg width="26" height="49" viewbox="0 0 26 49" fill="none" xmlns="http://www.w3.org/2000/svg">
<path fill-rule="evenodd" clip-rule="evenodd" d="M2.14186 0.581212C1.61953 0.899565 0.930864 1.58884 0.609877 2.11456C0.0729517 2.99368 0.0320988 3.59534 0.0291807 10.123C0.0291807 15.4795 0.116723 17.2115 0.391021 17.302C0.58945 17.3692 1.33356 17.2465 2.04265 17.0333C7.05589 15.5233 11.9991 19.2384 11.9903 24.5161C11.9845 27.8573 10.2132 30.5209 7.07048 31.9112C5.76611 32.4895 3.86352 32.5012 0.962963 31.9462L0 31.7622L0.0875421 39.2391L0.175084 46.719L1.24893 47.7938C2.16521 48.7079 2.55039 48.8861 3.8752 48.9825C5.70191 49.1168 6.98294 48.4714 7.91089 46.9497C8.44781 46.0706 8.49158 45.4689 8.49158 39.0376C8.49158 35.2086 8.60247 32.1215 8.73378 32.174C8.8651 32.2266 11.5585 33.76 14.7129 35.5825C19.6444 38.4272 20.6308 38.8916 21.7338 38.8916C24.2638 38.8916 26 37.183 26 34.6887C26 32.4165 25.3026 31.7622 18.9879 28.1056C15.8626 26.2977 13.2743 24.7176 13.2334 24.5949C13.1926 24.4723 15.4249 23.0762 18.1942 21.4873C24.0974 18.1023 24.9787 17.4889 25.5652 16.3528C26.5574 14.4339 25.7811 11.7528 23.9369 10.7364C23.2132 10.3362 22.5363 10.2165 21.4799 10.3041C20.2602 10.4034 19.1017 10.9583 14.4211 13.6804C11.3425 15.4708 8.74837 16.9369 8.65791 16.9369C8.56745 16.9369 8.4945 13.8147 8.4945 10.0004C8.4945 3.59242 8.45073 2.99076 7.91381 2.11164C7.13176 0.83531 5.68732 0 4.26038 0C3.60965 0 2.67295 0.257019 2.14186 0.581212Z" fill="#008C91"/>
<path fill-rule="evenodd" clip-rule="evenodd" d="M2.01627 20.7365C0.209989 21.9252 -0.379461 24.3435 0.66229 26.2945C2.19719 29.1655 6.53928 29.1276 8.02458 26.2273C8.99338 24.3406 8.55567 22.3837 6.84568 20.9439C5.65219 19.9391 3.37026 19.8398 2.01336 20.7336L2.01627 20.7365Z" fill="#DE5738"/>
</svg>
