<svg width="249" height="469" viewBox="0 0 249 469" fill="none" xmlns="http://www.w3.org/2000/svg">
<path fill-rule="evenodd" clip-rule="evenodd" d="M20.4609 5.55981C15.4712 8.60514 8.89244 15.1987 5.82609 20.2276C0.696899 28.6372 0.306636 34.3926 0.27876 96.8355C0.27876 148.075 1.11504 164.643 3.73538 165.509C5.63095 166.152 12.7393 164.978 19.5132 162.939C67.4041 148.494 114.626 184.032 114.542 234.518C114.487 266.48 97.5656 291.959 67.5435 305.259C55.083 310.791 36.9078 310.903 9.19908 305.594L0 303.834L0.83628 375.357C0.83628 375.357 0.83628 421.409 0.83628 436C0.83628 450.591 22 468.561 37.0194 468.561C65.5 468.561 81.1191 448.518 81.1191 433C81.1191 417.482 81.1191 434.95 81.1191 373.429C81.1191 336.801 82.1784 307.271 83.4328 307.773C84.6873 308.276 110.417 322.944 140.551 340.378C187.661 367.59 197.084 372.033 207.621 372.033C231.789 372.033 248.375 355.688 248.375 331.828C248.375 310.093 241.713 303.834 181.389 268.855C151.534 251.561 126.808 236.446 126.417 235.272C126.027 234.099 147.352 220.744 173.807 205.545C230.2 173.165 238.619 167.297 244.222 156.429C253.7 138.073 246.284 112.426 228.667 102.703C221.753 98.8749 215.287 97.7299 205.195 98.5678C193.543 99.5177 182.476 104.826 137.763 130.865C108.354 147.992 83.5722 162.016 82.708 162.016C81.8439 162.016 81.147 132.15 81.147 95.6627C81.147 34.3647 80.7289 28.6093 75.5997 20.1997C68.1289 7.99048 54.3303 0 40.6989 0C34.4826 0 25.5344 2.45861 20.4609 5.55981Z" fill="#008C91"/>
<path fill-rule="evenodd" clip-rule="evenodd" d="M19.2609 198.362C2.0057 209.733 -3.62526 232.866 6.32648 251.529C20.9892 278.993 62.4687 278.63 76.6576 250.887C85.9125 232.839 81.7311 214.119 65.3957 200.346C53.9944 190.734 32.1954 189.784 19.2331 198.334L19.2609 198.362Z" fill="#DE5738"/>
</svg>
