<svg width="35" height="58" viewbox="0 0 35 58" fill="none" xmlns="http://www.w3.org/2000/svg">
<path d="M15.485 0.0755389C11.4986 0.569975 7.94484 2.3314 5.13273 5.11261C0.621 9.65524 -1.04772 16.0211 0.651902 22.3561C1.20814 24.4265 1.70258 25.4772 3.80393 29.2782C7.94484 36.6947 11.4986 44.4821 14.4961 52.6712C15.2069 54.5871 15.8867 56.3486 15.9794 56.5649C16.3503 57.3065 17.5245 57.5847 18.4207 57.1211C18.946 56.843 19.0079 56.6576 20.6457 52.2695C24.1067 42.9061 27.197 36.1694 31.6778 28.3511C33.192 25.6935 33.81 24.3029 34.3663 22.2634C36.035 15.9902 34.3663 9.56254 29.8545 5.08171C27.3206 2.54772 24.2612 0.9099 20.862 0.260953C19.3169 0.0137344 16.9065 -0.0789725 15.485 0.0755389ZM18.946 10.5205C21.6963 11.0149 24.1376 13.3635 24.7557 16.0829C25.5282 19.3277 23.8286 22.8196 20.7693 24.272C15.9794 26.5897 10.3861 23.0668 10.3861 17.7207C10.3861 13.209 14.527 9.71705 18.946 10.5205Z" />
</svg>
