<svg width="201" height="234" viewBox="0 0 201 234" fill="none" xmlns="http://www.w3.org/2000/svg">
<path fill-rule="evenodd" clip-rule="evenodd" d="M148.07 127.859C162.66 127.859 175.877 133.804 185.458 143.406C195.07 153.004 201 166.28 201 180.927C201 195.579 195.07 208.855 185.494 218.452L184.893 219.01C175.358 228.283 162.372 234 148.07 234C133.458 234 120.222 228.054 110.65 218.452C101.074 208.855 95.1446 195.579 95.1446 180.927C95.1446 166.275 101.074 153.004 110.65 143.406C120.222 133.804 133.458 127.859 148.07 127.859ZM110.805 17.4031V42.1641C111.256 48.0732 113.312 52.7165 116.922 55.8059C120.659 59.0096 126.247 60.8056 133.644 60.9382L150.928 60.9199L110.805 17.4031ZM152.377 72.4686L133.553 72.4503C123.303 72.2904 115.226 69.5254 109.442 64.5714C103.412 59.4026 100.017 52.0721 99.3286 42.9867L99.2785 42.1915V11.5579H28.655C23.9422 11.5579 19.6533 13.491 16.554 16.5987C13.4547 19.7064 11.5267 24.0069 11.5267 28.7324V182.513C11.5267 187.22 13.4638 191.521 16.5677 194.633C19.667 197.741 23.9605 199.683 28.655 199.683H83.08C84.2377 203.7 85.7554 207.566 87.6014 211.241H28.655C20.7791 211.241 13.6051 208.005 8.41374 202.804C3.22694 197.599 0 190.41 0 182.513V28.7324C0 20.8444 3.22694 13.6601 8.40918 8.45932C13.6233 3.23565 20.7882 0 28.655 0H107.906C109.78 0 111.443 0.895746 112.496 2.28507L162.354 56.368C163.375 57.4786 163.877 58.877 163.877 60.2755L163.89 114.989C160.162 114.089 156.315 113.504 152.377 113.257V72.4686ZM47.6566 97.3713C44.4752 97.3713 41.8955 94.7846 41.8955 91.5946C41.8955 88.4001 44.4752 85.8134 47.6566 85.8134H116.247C119.429 85.8134 122.013 88.4001 122.013 91.5946C122.013 94.7846 119.429 97.3713 116.247 97.3713H47.6566ZM47.6566 130.413C44.4752 130.413 41.8955 127.827 41.8955 124.632C41.8955 121.442 44.4752 118.855 47.6566 118.855H112.615C114.306 118.855 115.828 119.587 116.885 120.752C111.862 123.378 107.186 126.623 102.966 130.413H47.6566ZM47.6566 163.455C44.4752 163.455 41.8955 160.869 41.8955 157.674C41.8955 154.484 44.4752 151.898 47.6566 151.898H86.945C85.2039 155.576 83.7773 159.443 82.7108 163.455H47.6566ZM154.437 191.141H141.671C140.8 180.571 130.24 151.975 148.075 151.975C165.95 151.975 155.303 180.598 154.437 191.141ZM141.671 198.545H154.437V209.883H141.671V198.545Z" />
</svg>
