<svg width="23" height="20" viewBox="0 0 23 20" fill="none" xmlns="http://www.w3.org/2000/svg">
<path d="M1.87352 0C0.839182 0 0 0.839844 0 1.875V10H5.62057C5.96405 10 6.24507 10.2812 6.24507 10.625C6.24507 10.9688 5.96405 11.25 5.62057 11.25H0V13.75H5.62057C5.96405 13.75 6.24507 14.0312 6.24507 14.375C6.24507 14.7188 5.96405 15 5.62057 15H0V18.125C0 19.1602 0.839182 20 1.87352 20H10.3785C10.1326 19.6016 9.99212 19.1328 9.99212 18.6289C9.99212 16.7969 10.9991 15.1992 12.4901 14.3633V10.6172V1.875C12.4901 0.839844 11.651 0 10.6166 0H1.87352ZM5.93282 2.5H6.55733C6.90081 2.5 7.18184 2.78125 7.18184 3.125V4.0625H8.1186C8.46208 4.0625 8.7431 4.34375 8.7431 4.6875V5.3125C8.7431 5.65625 8.46208 5.9375 8.1186 5.9375H7.18184V6.875C7.18184 7.21875 6.90081 7.5 6.55733 7.5H5.93282C5.58934 7.5 5.30831 7.21875 5.30831 6.875V5.9375H4.37155C4.02807 5.9375 3.74704 5.65625 3.74704 5.3125V4.6875C3.74704 4.34375 4.02807 4.0625 4.37155 4.0625H5.30831V3.125C5.30831 2.78125 5.58934 2.5 5.93282 2.5ZM19.9842 10.625C19.9842 9.7962 19.6553 9.00134 19.0697 8.41529C18.4841 7.82924 17.6898 7.5 16.8617 7.5C16.0336 7.5 15.2393 7.82924 14.6537 8.41529C14.0681 9.00134 13.7392 9.7962 13.7392 10.625C13.7392 11.4538 14.0681 12.2487 14.6537 12.8347C15.2393 13.4208 16.0336 13.75 16.8617 13.75C17.6898 13.75 18.4841 13.4208 19.0697 12.8347C19.6553 12.2487 19.9842 11.4538 19.9842 10.625ZM11.2411 18.6367C11.2411 19.3906 11.85 20 12.6033 20H21.1201C21.8734 20 22.4823 19.3906 22.4823 18.6367C22.4823 16.6289 20.8546 15 18.8484 15H14.875C12.8688 15 11.2411 16.6289 11.2411 18.6367Z" fill="#666666"/>
</svg>
