<svg width="30" height="22" viewbox="0 0 30 22" fill="none" xmlns="http://www.w3.org/2000/svg">
<path d="M25.7058 10.2584H17.5348V0H5.90457V20.8151H0V21.5905H30V20.8151H25.6461V10.2584H25.7058ZM16.7594 20.5169H6.62028V0.83499H16.7594V20.5169ZM24.8708 20.5169H17.6541V11.0338H24.8708V20.5169Z" fill="#DE5738"/>
<path d="M11.1531 2.92236H8.64813V5.06948H11.1531V2.92236ZM10.7952 4.71163H9.06563V3.33986H10.7952V4.71163Z" fill="#DE5738"/>
<path d="M14.7316 2.92236H12.2266V5.06948H14.7316V2.92236ZM14.3737 4.71163H12.6441V3.33986H14.3737V4.71163Z" fill="#DE5738"/>
<path d="M14.7316 5.72559H12.2266V7.8727H14.7316V5.72559ZM14.3737 7.51485H12.6441V6.14308H14.3737V7.51485Z" fill="#DE5738"/>
<path d="M14.7316 10.6758H12.2266V12.8229H14.7316V10.6758ZM14.3737 12.4054H12.6441V11.0336H14.3737V12.4054Z" fill="#DE5738"/>
<path d="M14.7316 15.5664H12.2266V17.7135H14.7316V15.5664ZM14.3737 17.296H12.6441V15.9243H14.3737V17.296Z" fill="#DE5738"/>
<path d="M11.1531 15.5664H8.64813V17.7135H11.1531V15.5664ZM10.7952 17.296H9.06563V15.9243H10.7952V17.296Z" fill="#DE5738"/>
<path d="M21.1133 11.8687H18.6083V14.0158H21.1133V11.8687ZM20.7555 13.5983H19.0258V12.2265H20.7555V13.5983Z" fill="#DE5738"/>
<path d="M24.2744 15.3281H21.7694V17.4752H24.2744V15.3281ZM23.8569 17.0577H22.1273V15.686H23.8569V17.0577Z" fill="#DE5738"/>
</svg>
