<svg width="28" height="28" viewbox="0 0 28 28" fill="none" xmlns="http://www.w3.org/2000/svg">
<path d="M13.5799 27.1598C21.0798 27.1598 27.1598 21.0798 27.1598 13.5799C27.1598 6.07992 21.0798 0 13.5799 0C6.07992 0 0 6.07992 0 13.5799C0 21.0798 6.07992 27.1598 13.5799 27.1598Z" fill="#DE5738"/>
<g clip-path="url(#clip0_3841_6844)">
<path fill-rule="evenodd" clip-rule="evenodd" d="M6.52454 9H20.4753C20.764 9 21 9.23779 21 9.52844V18.7806H6V9.52844C6 9.23779 6.23584 9 6.52454 9ZM7.38794 10.2296H17.4763V11.7001H7.38794V10.2296ZM16.1841 14.826H19.6121V15.6405H16.1841V14.826ZM13.5657 14.826H15.4844V15.6405H13.5657V14.826ZM13.5657 16.6606H19.6121V17.4749H13.5657V16.6606ZM13.4222 12.9918H19.6121V13.8062H13.4222V12.9918ZM7.38794 17.5511V16.7162C7.83472 16.5173 9.20251 16.1488 9.26733 15.6016C9.28174 15.478 8.99048 14.9982 8.92383 14.7726C8.83997 14.6385 8.7948 14.5909 8.797 14.4259C8.7981 14.3329 8.79956 14.2416 8.81274 14.1522C8.82996 14.0382 8.82629 14.0344 8.88611 13.9426C8.94836 13.8472 8.92163 13.4983 8.92163 13.3668C8.92163 12.0574 11.2159 12.0571 11.2159 13.3668C11.2159 13.5323 11.178 13.8365 11.2679 13.9667C11.3116 14.0302 11.3036 14.0375 11.3184 14.115C11.3378 14.2163 11.3391 14.3203 11.3408 14.4259C11.343 14.5909 11.2979 14.6385 11.214 14.7726C11.1326 15.0098 10.8234 15.458 10.8497 15.5923C10.948 16.0918 12.2169 16.4275 12.6165 16.6051V17.5511H7.38794ZM18.0947 10.2296H19.6121V11.7001H18.0947V10.2296Z" fill="white"/>
</g>
<defs>
<clipPath id="clip0_3841_6844">
<rect width="15" height="9.78064" fill="white" transform="translate(6 9)"/>
</clipPath>
</defs>
</svg>
