<svg width="27" height="27" viewbox="0 0 27 27" fill="none" xmlns="http://www.w3.org/2000/svg">
<g clip-path="url(#clip0_3812_7581)">
<path d="M13.5799 27.1598C21.0798 27.1598 27.1598 21.0798 27.1598 13.5799C27.1598 6.07992 21.0798 0 13.5799 0C6.07992 0 0 6.07992 0 13.5799C0 21.0798 6.07992 27.1598 13.5799 27.1598Z" fill="#DE5738"/>
<g clip-path="url(#clip1_3812_7581)">
<path d="M13.9008 5.72729C10.7504 5.72729 8.18164 8.25462 8.18164 11.3542C8.18164 15.2008 13.3031 20.8595 13.5292 21.0979C13.7393 21.3204 14.0947 21.3204 14.2886 21.0979C14.5148 20.8595 19.6362 15.2008 19.6362 11.3542C19.6362 8.25462 17.0674 5.72729 13.9008 5.72729ZM13.9008 14.1994C12.3176 14.1994 11.0251 12.9278 11.0251 11.3701C11.0251 9.81235 12.3176 8.54074 13.9008 8.54074C15.4841 8.54074 16.7766 9.81235 16.7766 11.3701C16.7766 12.9278 15.5003 14.1994 13.9008 14.1994Z" fill="#EEEEEE"/>
</g>
</g>
<defs>
<clipPath id="clip0_3812_7581">
<rect width="27" height="27" fill="white"/>
</clipPath>
<clipPath id="clip1_3812_7581">
<rect width="11.4545" height="15.5455" fill="white" transform="translate(8.18164 5.72729)"/>
</clipPath>
</defs>
</svg>
