<svg width="373" height="351" viewbox="0 0 373 351" fill="none" xmlns="http://www.w3.org/2000/svg">
<path d="M113.102 167.198C107.031 157.426 95.4355 144.133 95.4355 132.662C95.5724 128.94 96.831 125.346 99.0464 122.351C101.262 119.356 104.331 117.101 107.851 115.88C107.274 106.169 106.879 96.336 106.879 86.5944C106.879 80.8283 106.879 75.032 107.213 69.2963C107.588 66.3672 108.28 63.4876 109.277 60.7079C113.703 46.0474 123.446 33.5683 136.597 25.7172C141.299 22.82 146.295 20.4294 151.501 18.5855C160.881 15.1866 156.449 0.225203 166.951 0.0127695C191.235 -0.594182 230.939 20.5581 246.451 37.3403C256.277 47.5078 261.931 60.9899 262.296 75.123L261.294 117.61C263.589 118.089 265.726 119.138 267.508 120.66C269.291 122.182 270.661 124.128 271.493 126.319C274.65 139.612 260.748 156.212 254.313 166.924C248.242 176.757 225.627 203.524 225.597 203.766C225.772 205.558 226.493 207.253 227.661 208.622C229.877 211.637 232.388 214.422 235.159 216.937C221.955 230.893 213.377 248.581 210.596 267.59C207.814 286.598 210.965 306.001 219.617 323.154H0C0 226.436 103.783 257.117 139.055 208.622C140.816 206.042 141.605 204.677 141.575 203.554C141.575 202.947 115.439 170.93 113.102 167.137V167.198Z" />
<path d="M303.002 211.012C319.197 211.011 334.892 216.624 347.412 226.895C359.931 237.167 368.501 251.46 371.66 267.341C374.82 283.221 372.374 299.706 364.738 313.985C357.103 328.265 344.752 339.455 329.789 345.65C314.825 351.845 298.177 352.661 282.679 347.959C267.182 343.257 253.795 333.327 244.799 319.863C235.804 306.399 231.757 290.232 233.347 274.119C234.938 258.006 242.069 242.943 253.523 231.496C260.016 224.994 267.729 219.838 276.22 216.323C284.711 212.807 293.812 211.003 303.002 211.012ZM343.009 259.204L281.359 320.809C284.133 322.342 287.064 323.573 290.101 324.481C297.96 326.822 306.305 326.997 314.255 324.989C322.205 322.98 329.466 318.863 335.269 313.071C342.19 306.123 346.682 297.127 348.077 287.421C349.472 277.715 347.694 267.818 343.009 259.204ZM263.176 302.783L324.797 241.147C318.125 237.467 310.622 235.555 303.002 235.593C295.934 235.619 288.969 237.29 282.659 240.473C276.349 243.656 270.867 248.264 266.646 253.932C262.426 259.6 259.583 266.173 258.343 273.129C257.104 280.086 257.501 287.236 259.503 294.012C260.406 297.06 261.638 300.001 263.176 302.783Z" />
</svg>
