<svg width="28" height="28" viewbox="0 0 28 28" fill="none" xmlns="http://www.w3.org/2000/svg">
<g clip-path="url(#clip0_2055_17901)">
<path d="M13.6 27.2C21.1 27.2 27.2 21.1 27.2 13.6C27.2 6.1 21.1 0 13.6 0C6.1 0 0 6.1 0 13.6C0 21.1 6.1 27.2 13.6 27.2Z" fill="#DE5738" fill-opacity="0.9"/>
</g>
<g clip-path="url(#clip1_2055_17901)">
<path fill-rule="evenodd" clip-rule="evenodd" d="M20 11.3268C19.9366 10.9463 19.7463 10.5659 19.4293 10.3122L15.6878 6.63415C15.3707 6.31707 14.9902 6.12683 14.6098 6.06341V6H9.02927C7.8878 6 7 6.8878 7 7.96585V21.4098C7.06341 22.4244 7.95122 23.3122 9.02927 23.3122H18.0341C19.1122 23.3122 20 22.4244 20 21.3463V11.3268ZM15.1805 7.90244L18.0341 10.7561H15.878C15.4976 10.7561 15.1805 10.439 15.1805 10.0585V7.90244ZM16.8293 19.3805H10.1707C9.98049 19.3805 9.79024 19.5707 9.79024 19.761V20.7756C9.79024 20.9659 9.98049 21.1561 10.1707 21.1561H16.7659C16.9561 21.1561 17.1463 20.9659 17.1463 20.7756V19.761C17.2098 19.5073 17.0195 19.3805 16.8293 19.3805ZM16.8293 13.8634H10.1707C9.98049 13.8634 9.79024 14.0537 9.79024 14.2439V15.2585C9.79024 15.4488 9.98049 15.639 10.1707 15.639H16.7659C16.9561 15.639 17.1463 15.4488 17.1463 15.2585V14.2439C17.2098 14.0537 17.0195 13.8634 16.8293 13.8634ZM16.8293 16.5902H10.1707C9.98049 16.5902 9.79024 16.7805 9.79024 16.9707V17.9854C9.79024 18.1756 9.98049 18.3659 10.1707 18.3659H16.7659C16.9561 18.3659 17.1463 18.1756 17.1463 17.9854V16.9707C17.2098 16.7805 17.0195 16.5902 16.8293 16.5902Z" fill="white"/>
</g>
<defs>
<clipPath id="clip0_2055_17901">
<rect width="27.2" height="27.2" fill="white"/>
</clipPath>
<clipPath id="clip1_2055_17901">
<rect width="13" height="17.3756" fill="white" transform="translate(7 6)"/>
</clipPath>
</defs>
</svg>
